<?xml version="1.0" encoding="UTF-8"?>
<!DOCTYPE svg PUBLIC "-//W3C//DTD SVG 1.1//EN" "http://www.w3.org/Graphics/SVG/1.1/DTD/svg11.dtd">
<svg xmlns="http://www.w3.org/2000/svg" version="1.1" width="481px" height="440px" style="shape-rendering:geometricPrecision; text-rendering:geometricPrecision; image-rendering:optimizeQuality; fill-rule:evenodd; clip-rule:evenodd" xmlns:xlink="http://www.w3.org/1999/xlink">
<g><path style="opacity:1" fill="#12161d" d="M 411.5,-0.5 C 413.5,-0.5 415.5,-0.5 417.5,-0.5C 437.747,13.5993 451.247,32.5993 458,56.5C 459.398,72.0625 458.231,87.3959 454.5,102.5C 463.224,102.507 471.891,103.173 480.5,104.5C 480.5,105.167 480.5,105.833 480.5,106.5C 463.195,126.186 452.695,149.186 449,175.5C 446.318,200.025 447.485,224.358 452.5,248.5C 432.731,248.257 414.731,253.757 398.5,265C 380.067,277.596 365.733,293.763 355.5,313.5C 311.654,300.836 271.987,309.003 236.5,338C 234.888,338.72 233.388,338.554 232,337.5C 231.776,341.797 230.943,345.963 229.5,350C 232.645,353.145 235.812,356.312 239,359.5C 240.682,362.864 242.349,366.198 244,369.5C 247.076,368.712 250.242,368.212 253.5,368C 260.138,359.93 268.638,355.097 279,353.5C 285.05,346.927 292.55,344.093 301.5,345C 299.088,347.925 298.088,351.092 298.5,354.5C 307.074,357.579 314.074,362.746 319.5,370C 329.469,368.397 338.802,364.897 347.5,359.5C 356.284,382.938 349.284,399.938 326.5,410.5C 320.084,426.537 308.418,436.203 291.5,439.5C 288.167,439.5 284.833,439.5 281.5,439.5C 271.909,438.038 263.575,433.871 256.5,427C 239.937,428.625 228.77,421.792 223,406.5C 200.362,410.044 187.528,400.377 184.5,377.5C 185.119,373.07 186.119,368.737 187.5,364.5C 172.525,352.438 169.525,337.938 178.5,321C 162.505,319.498 146.838,321.331 131.5,326.5C 121.232,294.73 100.065,274.397 68,265.5C 71.3119,236.688 66.9785,209.021 55,182.5C 40.9665,175.968 28.6332,166.968 18,155.5C 8.76392,142.039 2.59726,127.372 -0.5,111.5C -0.5,103.5 -0.5,95.5 -0.5,87.5C 0.858315,82.9207 2.35832,78.254 4,73.5C 9.95463,62.5748 16.1213,51.9081 22.5,41.5C 21.6457,43.035 21.6457,44.3684 22.5,45.5C 23.209,46.404 24.209,46.7373 25.5,46.5C 28.5944,50.7811 30.9277,55.4478 32.5,60.5C 34.0245,67.2263 35.8578,73.8929 38,80.5C 43.3591,82.8456 48.8591,85.0123 54.5,87C 57.5973,88.2734 60.2639,90.1067 62.5,92.5C 63.4408,94.0495 64.1075,95.7162 64.5,97.5C 65.4969,101.479 66.4969,105.479 67.5,109.5C 67.5,110.5 67.5,111.5 67.5,112.5C 67.5569,113.609 67.8902,114.609 68.5,115.5C 68.3347,119.182 68.5014,122.848 69,126.5C 78.7666,121.857 86.9333,115.19 93.5,106.5C 96.2194,120.779 95.5527,134.946 91.5,149C 100.548,148.05 108.382,143.883 115,136.5C 116.188,137.563 116.688,138.897 116.5,140.5C 118.872,146.906 120.038,153.572 120,160.5C 124.824,148.642 125.657,136.642 122.5,124.5C 120.247,113.66 115.58,103.993 108.5,95.5C 108.855,94.4777 109.522,93.811 110.5,93.5C 118.897,103.296 124.397,114.629 127,127.5C 135.114,126.689 143.281,125.855 151.5,125C 137.094,107.355 128.927,87.1886 127,64.5C 129.946,62.4272 133.28,61.4272 137,61.5C 153.64,62.4938 169.64,66.1605 185,72.5C 198.767,67.8188 212.934,65.6522 227.5,66C 250.118,53.3496 274.284,45.5163 300,42.5C 309.319,41.2403 312.319,44.907 309,53.5C 302.452,70.4321 293.952,86.2654 283.5,101C 291.806,102.034 300.14,103.034 308.5,104C 311.07,106.067 313.07,108.567 314.5,111.5C 320.413,110.178 326.413,109.511 332.5,109.5C 332.413,88.5072 337.913,69.1739 349,51.5C 362.709,35.2237 380.209,25.557 401.5,22.5C 404.069,14.4445 407.403,6.77784 411.5,-0.5 Z"/></g>
<g><path style="opacity:1" fill="#81799f" d="M 455.5,68.5 C 444.745,97.4213 424.745,117.255 395.5,128C 383.494,132.198 371.16,133.532 358.5,132C 352.811,130.653 347.477,128.487 342.5,125.5C 342.215,123.712 342.548,122.045 343.5,120.5C 349.322,125.093 355.988,126.76 363.5,125.5C 360.742,118.975 358.242,112.308 356,105.5C 354.024,99.6269 353.357,93.6269 354,87.5C 359.918,93.2468 366.752,97.5801 374.5,100.5C 374.459,89.578 374.626,78.578 375,67.5C 375.794,64.5285 376.461,61.5285 377,58.5C 384.013,51.8221 391.346,45.4888 399,39.5C 402.082,26.5786 406.915,14.4119 413.5,3C 416.522,2.83628 419.189,3.83628 421.5,6C 436.16,18.5067 446.993,33.6733 454,51.5C 455.217,57.101 455.717,62.7676 455.5,68.5 Z"/></g>
<g><path style="opacity:0.004" fill="#fefffe" d="M 52.5,15.5 C 53.2506,14.4265 54.2506,14.2599 55.5,15C 54.552,15.4828 53.552,15.6495 52.5,15.5 Z"/></g>
<g><path style="opacity:0.004" fill="#fefffe" d="M 38.5,19.5 C 39.8333,20.1667 39.8333,20.1667 38.5,19.5 Z"/></g>
<g><path style="opacity:0.004" fill="#fefffe" d="M 84.5,19.5 C 85.8333,20.1667 85.8333,20.1667 84.5,19.5 Z"/></g>
<g><path style="opacity:0.004" fill="#fefffe" d="M 89.5,23.5 C 89.8966,22.475 90.5632,22.3083 91.5,23C 90.9056,23.4643 90.2389,23.631 89.5,23.5 Z"/></g>
<g><path style="opacity:1" fill="#bab6ce" d="M 420.5,23.5 C 434.19,25.4795 441.523,33.4795 442.5,47.5C 442.658,57.7017 438.324,60.2017 429.5,55C 419.392,46.2122 416.392,35.7122 420.5,23.5 Z"/></g>
<g><path style="opacity:0.004" fill="#fefffe" d="M 27.5,25.5 C 30.0009,25.5109 30.1676,26.1776 28,27.5C 27.5357,26.9056 27.369,26.2389 27.5,25.5 Z"/></g>
<g><path style="opacity:0.004" fill="#fefffe" d="M 93.5,26.5 C 94.209,25.596 95.209,25.2627 96.5,25.5C 96.6495,26.552 96.4828,27.552 96,28.5C 95.5831,27.244 94.7498,26.5774 93.5,26.5 Z"/></g>
<g><path style="opacity:1" fill="#7e779c" d="M 389.5,27.5 C 392.833,27.5 396.167,27.5 399.5,27.5C 399.186,30.9466 398.352,34.2799 397,37.5C 392.123,42.046 386.956,46.2127 381.5,50C 378.238,52.592 375.738,55.7587 374,59.5C 372.546,72.22 372.046,84.8867 372.5,97.5C 364.685,93.8525 357.851,88.8525 352,82.5C 350.602,97.242 353.769,110.909 361.5,123.5C 353.332,124.496 346.498,121.829 341,115.5C 341.12,135.124 339.453,135.124 336,115.5C 334.1,91.5471 340.1,69.8804 354,50.5C 363.881,39.6536 375.714,31.9869 389.5,27.5 Z"/></g>
<g><path style="opacity:0.004" fill="#fefffe" d="M 24.5,28.5 C 25.8333,29.1667 25.8333,29.1667 24.5,28.5 Z"/></g>
<g><path style="opacity:0.004" fill="#fefffe" d="M 99.5,30.5 C 98.7109,30.2172 98.0442,29.7172 97.5,29C 98.816,28.4719 99.4827,28.9719 99.5,30.5 Z"/></g>
<g><path style="opacity:0.004" fill="#fefffe" d="M 22.5,30.5 C 23.8333,31.1667 23.8333,31.1667 22.5,30.5 Z"/></g>
<g><path style="opacity:1" fill="#c7aedd" d="M 96.5,39.5 C 96.5,40.8333 96.5,42.1667 96.5,43.5C 96.1667,43.5 95.8333,43.5 95.5,43.5C 90.6554,36.077 83.9887,31.077 75.5,28.5C 75.0825,27.7784 74.4158,27.2784 73.5,27C 59.2365,24.2186 46.2365,26.8852 34.5,35C 33.252,36.3997 32.252,37.8997 31.5,39.5C 28.8291,41.1206 26.8291,43.4539 25.5,46.5C 24.209,46.7373 23.209,46.404 22.5,45.5C 34.6615,27.351 51.6615,20.1843 73.5,24C 82.5731,27.1943 90.2398,32.3609 96.5,39.5 Z"/></g>
<g><path style="opacity:0.004" fill="#fefffe" d="M 99.5,30.5 C 100.5,30.5 101.5,30.5 102.5,30.5C 102.5,31.5 102.5,32.5 102.5,33.5C 101.167,32.8333 100.167,31.8333 99.5,30.5 Z"/></g>
<g><path style="opacity:0.004" fill="#fefffe" d="M 19.5,33.5 C 20.525,33.8966 20.6917,34.5632 20,35.5C 19.5357,34.9056 19.369,34.2389 19.5,33.5 Z"/></g>
<g><path style="opacity:1" fill="#fcfbfd" d="M 53.5,35.5 C 56.7226,42.0676 55.0559,47.0676 48.5,50.5C 46.8333,50.5 45.1667,50.5 43.5,50.5C 37.6157,47.9123 35.9491,43.579 38.5,37.5C 42.9266,31.8773 47.9266,31.2107 53.5,35.5 Z"/></g>
<g><path style="opacity:0.004" fill="#fefffe" d="M 102.5,33.5 C 104.048,33.8212 104.715,34.8212 104.5,36.5C 103.599,35.7095 102.932,34.7095 102.5,33.5 Z"/></g>
<g><path style="opacity:0.004" fill="#fefffe" d="M 16.5,39.5 C 16.272,37.6453 16.9387,36.8119 18.5,37C 17.9341,37.9947 17.2674,38.828 16.5,39.5 Z"/></g>
<g><path style="opacity:0.004" fill="#fefffe" d="M 104.5,36.5 C 105.5,36.5 106.5,36.5 107.5,36.5C 106.911,40.2965 105.911,40.2965 104.5,36.5 Z"/></g>
<g><path style="opacity:0.984" fill="#1f1f21" d="M 99.5,38.5 C 99.8564,40.1898 100.856,41.1898 102.5,41.5C 103.421,45.299 105.088,48.6323 107.5,51.5C 107.5,52.8333 107.5,54.1667 107.5,55.5C 108.624,58.0417 109.458,60.7084 110,63.5C 110.333,62.8333 110.667,62.1667 111,61.5C 112.307,68.3317 111.14,74.6651 107.5,80.5C 107.5,81.5 107.5,82.5 107.5,83.5C 105.202,86.6517 105.869,89.3183 109.5,91.5C 109.189,92.4778 108.522,93.1445 107.5,93.5C 106.167,92.5 104.833,91.5 103.5,90.5C 95.5386,103.984 83.872,112.317 68.5,115.5C 67.8902,114.609 67.5569,113.609 67.5,112.5C 88.6978,108.801 101.531,96.4678 106,75.5C 107.561,62.0904 104.394,50.0904 96.5,39.5C 90.2398,32.3609 82.5731,27.1943 73.5,24C 51.6615,20.1843 34.6615,27.351 22.5,45.5C 21.6457,44.3684 21.6457,43.035 22.5,41.5C 22.2148,39.712 22.5481,38.0453 23.5,36.5C 24.086,36.7093 24.586,37.0426 25,37.5C 28.9432,32.5582 33.7765,28.7248 39.5,26C 38.6634,24.9887 38.33,23.8221 38.5,22.5C 40.1238,22.3601 41.2904,23.0267 42,24.5C 54.6242,18.4671 67.4575,17.9671 80.5,23C 83.8748,25.6864 87.5415,27.8531 91.5,29.5C 94.2177,32.5454 96.8844,35.5454 99.5,38.5 Z"/></g>
<g><path style="opacity:1" fill="#e099d0" d="M 75.5,28.5 C 75.1667,28.5 74.8333,28.5 74.5,28.5C 66.3974,27.7271 59.3974,30.0604 53.5,35.5C 47.9266,31.2107 42.9266,31.8773 38.5,37.5C 36.1667,38.1667 33.8333,38.8333 31.5,39.5C 32.252,37.8997 33.252,36.3997 34.5,35C 46.2365,26.8852 59.2365,24.2186 73.5,27C 74.4158,27.2784 75.0825,27.7784 75.5,28.5 Z"/></g>
<g><path style="opacity:0.004" fill="#fefffe" d="M 16.5,39.5 C 16.047,41.5652 15.047,43.2318 13.5,44.5C 13.5,42.8333 13.5,41.1667 13.5,39.5C 14.5,39.5 15.5,39.5 16.5,39.5 Z"/></g>
<g><path style="opacity:0.016" fill="#999999" d="M 102.5,41.5 C 100.856,41.1898 99.8564,40.1898 99.5,38.5C 99.369,37.7611 99.5357,37.0944 100,36.5C 101.395,38.1397 102.895,39.6397 104.5,41C 103.906,41.4643 103.239,41.631 102.5,41.5 Z"/></g>
<g><path style="opacity:0.004" fill="#fefffe" d="M 107.5,42.5 C 108.209,41.596 109.209,41.2627 110.5,41.5C 110.66,43.1992 110.494,44.8659 110,46.5C 109.8,44.6803 108.966,43.347 107.5,42.5 Z"/></g>
<g><path style="opacity:0.004" fill="#fefffe" d="M 13.5,44.5 C 13.5086,46.3084 13.0086,47.9751 12,49.5C 11.8333,48.6667 11.6667,47.8333 11.5,47C 11.6842,45.6244 12.3509,44.7911 13.5,44.5 Z"/></g>
<g><path style="opacity:1" fill="#9d6eab" d="M 74.5,28.5 C 74.8333,28.5 75.1667,28.5 75.5,28.5C 83.9887,31.077 90.6554,36.077 95.5,43.5C 98.7357,51.2409 98.069,58.5743 93.5,65.5C 91.5,66.8333 89.5,68.1667 87.5,69.5C 90.7157,70.4003 93.3824,72.067 95.5,74.5C 93.8958,75.287 93.2291,76.6203 93.5,78.5C 84.7952,73.3414 77.6286,75.0081 72,83.5C 71.2316,87.9196 71.3982,92.2529 72.5,96.5C 70.6208,97.3414 68.6208,97.6747 66.5,97.5C 63.1558,86.3287 66.1558,77.4954 75.5,71C 69.6734,70.4567 64.6734,68.29 60.5,64.5C 62.99,64.0228 64.99,62.6895 66.5,60.5C 55.8285,52.7887 54.8285,44.122 63.5,34.5C 66.9018,33.088 70.4018,32.088 74,31.5C 74.3333,31.8333 74.6667,32.1667 75,32.5C 75.195,31.1807 75.0283,29.8474 74.5,28.5 Z"/></g>
<g><path style="opacity:1" fill="#7e589d" d="M 76.5,33.5 C 79.2527,32.3414 81.9194,32.8414 84.5,35C 92.4277,41.8739 94.4277,50.0406 90.5,59.5C 83.1852,64.203 75.5186,64.703 67.5,61C 69.1667,59.3333 70.8333,57.6667 72.5,56C 63.2099,50.8927 62.2099,44.5593 69.5,37C 72.1209,36.0615 74.7875,35.2281 77.5,34.5C 77.3764,33.8933 77.0431,33.56 76.5,33.5 Z"/></g>
<g><path style="opacity:1" fill="#5b3e8c" d="M 78.5,36.5 C 84.79,37.6305 88.1234,41.4639 88.5,48C 86.4946,55.543 81.8279,58.2096 74.5,56C 73.8919,53.8159 74.5586,51.8159 76.5,50C 72.9933,48.1387 71.8266,45.3054 73,41.5C 74.4443,39.8446 76.2776,39.178 78.5,39.5C 78.5,38.5 78.5,37.5 78.5,36.5 Z"/></g>
<g><path style="opacity:1" fill="#7d769b" d="M 167.5,139.5 C 183.785,150.746 201.452,153.246 220.5,147C 237.793,139.884 247.127,127.051 248.5,108.5C 249.873,108.657 251.207,108.49 252.5,108C 250.5,107.333 248.5,107.333 246.5,108C 223.939,122.448 199.272,128.115 172.5,125C 166.703,123.903 161.369,121.736 156.5,118.5C 154.725,109.701 156.059,101.368 160.5,93.5C 161.167,92.1667 161.833,92.1667 162.5,93.5C 159.592,99.5029 158.758,105.836 160,112.5C 163.5,120.585 168.5,121.585 175,115.5C 176.989,111.747 177.822,107.747 177.5,103.5C 178.552,103.649 179.552,103.483 180.5,103C 164.993,92.7471 149.66,82.2471 134.5,71.5C 135.72,88.9539 142.22,104.287 154,117.5C 155.202,119.677 155.702,122.011 155.5,124.5C 148.197,116.588 142.363,107.588 138,97.5C 133.986,87.9478 130.82,78.1145 128.5,68C 128.585,66.8926 128.919,65.8926 129.5,65C 145.309,64.0943 160.642,66.4276 175.5,72C 178.674,73.0721 180.841,74.5721 182,76.5C 195.101,70.4856 208.768,68.4856 223,70.5C 242.918,60.3042 263.751,52.4709 285.5,47C 292.689,45.3506 299.856,45.1839 307,46.5C 307.146,50.2618 306.48,53.9284 305,57.5C 293.902,82.2481 279.235,104.581 261,124.5C 250.421,136.084 237.921,144.917 223.5,151C 204.937,157.344 187.604,155.011 171.5,144C 169.959,142.629 168.625,141.129 167.5,139.5 Z"/></g>
<g><path style="opacity:1" fill="#ad83b8" d="M 74.5,28.5 C 75.0283,29.8474 75.195,31.1807 75,32.5C 74.6667,32.1667 74.3333,31.8333 74,31.5C 70.4018,32.088 66.9018,33.088 63.5,34.5C 54.8285,44.122 55.8285,52.7887 66.5,60.5C 64.99,62.6895 62.99,64.0228 60.5,64.5C 57.8747,62.7136 55.3747,60.7136 53,58.5C 51.3886,62.2748 48.8886,65.2748 45.5,67.5C 42.7835,67.3215 40.1168,66.8215 37.5,66C 42.2837,63.5501 46.117,60.0501 49,55.5C 49.7796,53.6131 49.6129,51.9464 48.5,50.5C 55.0559,47.0676 56.7226,42.0676 53.5,35.5C 59.3974,30.0604 66.3974,27.7271 74.5,28.5 Z"/></g>
<g><path style="opacity:0.004" fill="#fefffe" d="M 113.5,55.5 C 112.282,53.1719 111.282,50.6719 110.5,48C 111.448,47.5172 112.448,47.3505 113.5,47.5C 113.5,50.1667 113.5,52.8333 113.5,55.5 Z"/></g>
<g><path style="opacity:1" fill="#81799f" d="M 114.5,141.5 C 113.758,144.809 112.091,147.643 109.5,150C 90.234,163.775 69.5674,166.108 47.5,157C 31.6967,149.603 18.3634,139.103 7.5,125.5C 4.92023,120.579 3.42023,115.246 3,109.5C -0.00122823,85.5176 7.16544,65.1843 24.5,48.5C 26.1461,49.7786 27.3128,51.4453 28,53.5C 31.4732,63.4189 34.6399,73.4189 37.5,83.5C 46.3696,85.6864 54.5363,89.3531 62,94.5C 65.128,105.604 66.628,116.937 66.5,128.5C 76.6818,125.507 85.1818,119.84 92,111.5C 92.6667,120.167 92.6667,128.833 92,137.5C 90.9918,142.841 90.3251,148.175 90,153.5C 99.0229,150.99 107.023,146.656 114,140.5C 114.399,140.728 114.565,141.062 114.5,141.5 Z"/></g>
<g><path style="opacity:0.004" fill="#fefffe" d="M 107.5,55.5 C 107.5,54.1667 107.5,52.8333 107.5,51.5C 107.56,50.9569 107.893,50.6236 108.5,50.5C 108.833,51.3333 109.167,52.1667 109.5,53C 109.316,54.3756 108.649,55.2089 107.5,55.5 Z"/></g>
<g><path style="opacity:0.004" fill="#fefffe" d="M 8.5,52.5 C 9.55198,52.3505 10.552,52.5172 11.5,53C 9.26161,60.4042 8.26161,60.2375 8.5,52.5 Z"/></g>
<g><path style="opacity:0.993" fill="#7b5e9f" d="M 38.5,37.5 C 35.9491,43.579 37.6157,47.9123 43.5,50.5C 42.6449,57.0252 38.9782,60.3585 32.5,60.5C 30.9277,55.4478 28.5944,50.7811 25.5,46.5C 26.8291,43.4539 28.8291,41.1206 31.5,39.5C 33.8333,38.8333 36.1667,38.1667 38.5,37.5 Z"/></g>
<g><path style="opacity:0.004" fill="#fefffe" d="M 113.5,55.5 C 114.822,58.7681 115.489,62.4348 115.5,66.5C 115.167,70.1667 114.833,73.8333 114.5,77.5C 114.692,70.2718 114.358,62.9385 113.5,55.5 Z"/></g>
<g><path style="opacity:1" fill="#1f1721" d="M 231.5,79.5 C 231.158,78.6618 230.492,78.3284 229.5,78.5C 249.011,66.9152 269.677,57.7485 291.5,51C 294.5,50.3333 297.5,50.3333 300.5,51C 301.598,53.4977 301.432,55.9977 300,58.5C 291.244,77.5741 279.744,94.7407 265.5,110C 264.216,110.684 263.049,110.517 262,109.5C 258.257,98.4244 252.091,88.9244 243.5,81C 239.815,77.2367 235.815,76.7367 231.5,79.5 Z"/></g>
<g><path style="opacity:1" fill="#d5013f" d="M 291.5,52.5 C 294.167,52.5 296.833,52.5 299.5,52.5C 297.521,59.4656 294.688,66.1322 291,72.5C 287.5,66.3333 282.667,61.5 276.5,58C 281.304,55.3912 286.304,53.5579 291.5,52.5 Z"/></g>
<g><path style="opacity:1" fill="#bd0138" d="M 279.5,62.5 C 275.577,63.7951 271.91,65.6284 268.5,68C 266.937,68.7589 265.937,69.9256 265.5,71.5C 263.036,69.4297 260.369,67.5963 257.5,66C 262.713,63.2267 268.046,60.7267 273.5,58.5C 275.911,59.3611 277.911,60.6944 279.5,62.5 Z"/></g>
<g><path style="opacity:1" fill="#af669e" d="M 95.5,43.5 C 95.8333,43.5 96.1667,43.5 96.5,43.5C 103.103,53.8849 105.27,65.2182 103,77.5C 101.644,81.2953 100.144,84.9619 98.5,88.5C 98.6653,84.8183 98.4986,81.1516 98,77.5C 96.955,76.6266 96.1217,75.6266 95.5,74.5C 93.3824,72.067 90.7157,70.4003 87.5,69.5C 89.5,68.1667 91.5,66.8333 93.5,65.5C 98.069,58.5743 98.7357,51.2409 95.5,43.5 Z"/></g>
<g><path style="opacity:1" fill="#e00043" d="M 279.5,62.5 C 283.85,65.5286 287.184,69.5286 289.5,74.5C 286.59,80.2391 283.09,85.5725 279,90.5C 275.963,83.079 271.463,76.7456 265.5,71.5C 265.937,69.9256 266.937,68.7589 268.5,68C 271.91,65.6284 275.577,63.7951 279.5,62.5 Z"/></g>
<g><path style="opacity:1" fill="#c275b4" d="M 60.5,64.5 C 64.6734,68.29 69.6734,70.4567 75.5,71C 66.1558,77.4954 63.1558,86.3287 66.5,97.5C 65.8333,97.5 65.1667,97.5 64.5,97.5C 64.1075,95.7162 63.4408,94.0495 62.5,92.5C 62.9684,87.6303 62.3018,82.9636 60.5,78.5C 58.1667,76.8333 56.1667,74.8333 54.5,72.5C 51.2315,71.1464 47.8981,69.9797 44.5,69C 45.056,68.6174 45.3893,68.1174 45.5,67.5C 48.8886,65.2748 51.3886,62.2748 53,58.5C 55.3747,60.7136 57.8747,62.7136 60.5,64.5 Z"/></g>
<g><path style="opacity:1" fill="#9568a6" d="M 43.5,50.5 C 45.1667,50.5 46.8333,50.5 48.5,50.5C 49.6129,51.9464 49.7796,53.6131 49,55.5C 46.117,60.0501 42.2837,63.5501 37.5,66C 40.1168,66.8215 42.7835,67.3215 45.5,67.5C 45.3893,68.1174 45.056,68.6174 44.5,69C 47.8981,69.9797 51.2315,71.1464 54.5,72.5C 56.1667,74.8333 58.1667,76.8333 60.5,78.5C 62.3018,82.9636 62.9684,87.6303 62.5,92.5C 60.2639,90.1067 57.5973,88.2734 54.5,87C 48.8591,85.0123 43.3591,82.8456 38,80.5C 35.8578,73.8929 34.0245,67.2263 32.5,60.5C 38.9782,60.3585 42.6449,57.0252 43.5,50.5 Z"/></g>
<g><path style="opacity:1" fill="#c10039" d="M 262.5,72.5 C 257.334,75.2484 252.334,78.2484 247.5,81.5C 244.996,79.8557 242.329,78.3557 239.5,77C 238.167,76.3333 238.167,75.6667 239.5,75C 244.718,72.224 250.051,69.724 255.5,67.5C 258.389,68.4396 260.722,70.1063 262.5,72.5 Z"/></g>
<g><path style="opacity:1" fill="#bab6ce" d="M 17.5,69.5 C 22.0575,68.3805 24.8908,70.0471 26,74.5C 26.8506,82.4291 25.1839,89.7625 21,96.5C 15.5761,102.479 11.5761,101.813 9,94.5C 6.77955,84.3077 9.61288,75.9744 17.5,69.5 Z"/></g>
<g><path style="opacity:1" fill="#665e7f" d="M 455.5,68.5 C 455.937,95.4428 446.604,118.276 427.5,137C 416.945,145.945 404.945,152.279 391.5,156C 373.558,159.574 358.391,154.741 346,141.5C 343.279,136.504 342.112,131.171 342.5,125.5C 347.477,128.487 352.811,130.653 358.5,132C 371.16,133.532 383.494,132.198 395.5,128C 424.745,117.255 444.745,97.4213 455.5,68.5 Z"/></g>
<g><path style="opacity:1" fill="#e10043" d="M 262.5,72.5 C 269.278,77.5176 274.278,84.0176 277.5,92C 273.559,97.6121 269.226,102.945 264.5,108C 260.085,98.7444 254.418,89.911 247.5,81.5C 252.334,78.2484 257.334,75.2484 262.5,72.5 Z"/></g>
<g><path style="opacity:1" fill="#80569c" d="M 93.5,78.5 C 92.7377,80.2624 91.4044,81.2624 89.5,81.5C 79.4475,80.9267 75.4475,85.5933 77.5,95.5C 75.8828,96.038 74.2161,96.3713 72.5,96.5C 71.3982,92.2529 71.2316,87.9196 72,83.5C 77.6286,75.0081 84.7952,73.3414 93.5,78.5 Z"/></g>
<g><path style="opacity:0.004" fill="#fefffe" d="M 107.5,80.5 C 110.167,81.5 110.167,82.5 107.5,83.5C 107.5,82.5 107.5,81.5 107.5,80.5 Z"/></g>
<g><path style="opacity:0.004" fill="#fefffe" d="M 112.5,81.5 C 113.468,83.6074 113.802,85.9407 113.5,88.5C 112.448,88.6495 111.448,88.4828 110.5,88C 111.397,85.9129 112.064,83.7463 112.5,81.5 Z"/></g>
<g><path style="opacity:1" fill="#9574a0" d="M 96.5,39.5 C 104.394,50.0904 107.561,62.0904 106,75.5C 101.531,96.4678 88.6978,108.801 67.5,112.5C 67.5,111.5 67.5,110.5 67.5,109.5C 81.3771,107.606 91.7104,100.606 98.5,88.5C 100.144,84.9619 101.644,81.2953 103,77.5C 105.27,65.2182 103.103,53.8849 96.5,43.5C 96.5,42.1667 96.5,40.8333 96.5,39.5 Z"/></g>
<g><path style="opacity:1" fill="#7f779d" d="M 110.5,93.5 C 109.522,93.811 108.855,94.4777 108.5,95.5C 115.58,103.993 120.247,113.66 122.5,124.5C 121.464,130.286 119.464,135.619 116.5,140.5C 116.688,138.897 116.188,137.563 115,136.5C 108.382,143.883 100.548,148.05 91.5,149C 95.5527,134.946 96.2194,120.779 93.5,106.5C 86.9333,115.19 78.7666,121.857 69,126.5C 68.5014,122.848 68.3347,119.182 68.5,115.5C 83.872,112.317 95.5386,103.984 103.5,90.5C 104.833,91.5 106.167,92.5 107.5,93.5C 108.522,93.1445 109.189,92.4778 109.5,91.5C 109.369,90.7611 109.536,90.0944 110,89.5C 110.49,90.7932 110.657,92.1266 110.5,93.5 Z"/></g>
<g><path style="opacity:1" fill="#523074" d="M 89.5,81.5 C 94.3067,85.8608 94.64,90.5275 90.5,95.5C 86.1002,99.362 81.7669,99.362 77.5,95.5C 75.4475,85.5933 79.4475,80.9267 89.5,81.5 Z"/></g>
<g><path style="opacity:1" fill="#75477e" d="M 95.5,74.5 C 96.1217,75.6266 96.955,76.6266 98,77.5C 98.4986,81.1516 98.6653,84.8183 98.5,88.5C 91.7104,100.606 81.3771,107.606 67.5,109.5C 66.4969,105.479 65.4969,101.479 64.5,97.5C 65.1667,97.5 65.8333,97.5 66.5,97.5C 68.6208,97.6747 70.6208,97.3414 72.5,96.5C 74.2161,96.3713 75.8828,96.038 77.5,95.5C 81.7669,99.362 86.1002,99.362 90.5,95.5C 94.64,90.5275 94.3067,85.8608 89.5,81.5C 91.4044,81.2624 92.7377,80.2624 93.5,78.5C 93.2291,76.6203 93.8958,75.287 95.5,74.5 Z"/></g>
<g><path style="opacity:1" fill="#1d1f20" d="M 229.5,78.5 C 230.492,78.3284 231.158,78.6618 231.5,79.5C 240.213,87.2876 241.713,96.2876 236,106.5C 229.64,113.386 221.807,115.886 212.5,114C 205.892,111.291 201.725,106.458 200,99.5C 198.754,100.772 197.587,101.105 196.5,100.5C 206.669,91.916 217.669,84.5827 229.5,78.5 Z"/></g>
<g><path style="opacity:1" fill="#ecd103" d="M 207.5,93.5 C 208.021,100.064 210.021,106.231 213.5,112C 205.554,109.876 202.221,104.709 203.5,96.5C 204.901,95.4793 206.235,94.4793 207.5,93.5 Z"/></g>
<g><path style="opacity:1" fill="#f5d902" d="M 222.5,83.5 C 223.496,83.4142 224.329,83.7476 225,84.5C 228.291,93.1809 228.291,101.848 225,110.5C 221.333,114.5 217.667,114.5 214,110.5C 210.835,104.86 209.502,98.8603 210,92.5C 214.322,89.601 218.489,86.601 222.5,83.5 Z"/></g>
<g><path style="opacity:1" fill="#f5d901" d="M 226.5,81.5 C 233.793,83.1436 237.46,87.8103 237.5,95.5C 237.701,103.898 234.035,108.898 226.5,110.5C 230.733,101.143 230.4,91.976 225.5,83C 226.056,82.6174 226.389,82.1174 226.5,81.5 Z"/></g>
<g><path style="opacity:1" fill="#80799e" d="M 301.5,114.5 C 296.847,131.137 290.014,146.804 281,161.5C 280.257,159.355 279.424,159.189 278.5,161C 285.976,194.095 277.976,198.929 254.5,175.5C 254.167,175.667 253.833,175.833 253.5,176C 254.956,177.745 256.289,179.578 257.5,181.5C 254.732,184.093 251.732,185.093 248.5,184.5C 244.5,175.167 240.5,165.833 236.5,156.5C 248.319,148.014 257.653,137.347 264.5,124.5C 269.732,118.379 274.732,112.045 279.5,105.5C 281.333,105.167 283.167,104.833 285,104.5C 291.827,105.088 298.66,105.588 305.5,106C 307.64,106.973 309.307,108.473 310.5,110.5C 309.307,112.384 307.641,112.884 305.5,112C 306.167,111.667 306.833,111.333 307.5,111C 304.152,109.847 302.152,111.014 301.5,114.5 Z"/></g>
<g><path style="opacity:1" fill="#585656" d="M 265.5,300.5 C 270.86,296.929 273.027,291.929 272,285.5C 271.019,283.04 270.185,280.54 269.5,278C 277.557,264.795 277.39,251.628 269,238.5C 264.102,234.39 259.435,230.056 255,225.5C 252.947,221.414 252.113,217.08 252.5,212.5C 264.237,208.557 275.903,208.557 287.5,212.5C 308.484,239.804 328.484,267.804 347.5,296.5C 347.833,296.333 348.167,296.167 348.5,296C 331.094,267.339 312.094,239.839 291.5,213.5C 301.405,193.363 317.738,183.029 340.5,182.5C 370.289,199.119 399.456,216.786 428,235.5C 428.163,233.613 427.329,232.113 425.5,231C 399.272,213.723 372.605,197.223 345.5,181.5C 344.341,176.38 343.341,171.213 342.5,166C 342.528,164.93 342.861,164.097 343.5,163.5C 343.833,163.5 344.167,163.5 344.5,163.5C 353.47,164.805 361.97,163.138 370,158.5C 402.274,160.196 427.274,147.53 445,120.5C 447.372,115.588 449.872,110.755 452.5,106C 460.191,105.514 467.858,105.848 475.5,107C 450.918,137.425 440.418,172.258 444,211.5C 444.672,222.898 446.505,234.065 449.5,245C 428.723,245.148 410.056,251.481 393.5,264C 376.425,277.048 362.758,292.881 352.5,311.5C 337.08,305.456 321.08,303.289 304.5,305C 278.03,308.49 254.53,318.656 234,335.5C 232.739,335.241 231.739,334.574 231,333.5C 230.578,331.645 230.078,329.811 229.5,328C 238.325,322.522 243.825,314.689 246,304.5C 252.734,304.203 259.234,302.869 265.5,300.5 Z"/></g>
<g><path style="opacity:1" fill="#3c3938" d="M 334.5,120.5 C 326.51,121.058 318.51,121.558 310.5,122C 307.373,122.392 304.373,123.225 301.5,124.5C 301.167,124 300.833,123.5 300.5,123C 301.479,120.567 302.145,118.067 302.5,115.5C 312.762,113.925 323.095,112.592 333.5,111.5C 333.368,114.57 333.701,117.57 334.5,120.5 Z"/></g>
<g><path style="opacity:1" fill="#ededee" d="M 160.5,131.5 C 160.44,132.043 160.107,132.376 159.5,132.5C 158.511,129.562 157.844,126.562 157.5,123.5C 157.369,122.761 157.536,122.094 158,121.5C 159.584,122.861 161.418,123.528 163.5,123.5C 163.606,126.615 162.606,129.281 160.5,131.5 Z"/></g>
<g><path style="opacity:1" fill="#3d3938" d="M 334.5,122.5 C 335.533,123.912 336.199,125.578 336.5,127.5C 333.421,133.48 331.421,139.813 330.5,146.5C 328.55,147.372 326.55,148.039 324.5,148.5C 313.465,146.439 304.465,141.105 297.5,132.5C 297.899,130.803 298.399,129.137 299,127.5C 310.496,123.739 322.329,122.072 334.5,122.5 Z"/></g>
<g><path style="opacity:1" fill="#655e7e" d="M 7.5,125.5 C 18.3634,139.103 31.6967,149.603 47.5,157C 69.5674,166.108 90.234,163.775 109.5,150C 112.091,147.643 113.758,144.809 114.5,141.5C 122.213,164.228 114.213,178.061 90.5,183C 67.0409,184.18 46.3743,177.18 28.5,162C 17.9972,151.825 10.9972,139.658 7.5,125.5 Z"/></g>
<g><path style="opacity:1" fill="#625b7a" d="M 122.5,124.5 C 125.657,136.642 124.824,148.642 120,160.5C 120.038,153.572 118.872,146.906 116.5,140.5C 119.464,135.619 121.464,130.286 122.5,124.5 Z"/></g>
<g><path style="opacity:1" fill="#3c3837" d="M 135.5,138.5 C 135.736,135.391 135.403,132.391 134.5,129.5C 141.464,128.447 148.464,128.28 155.5,129C 157.103,132.599 159.436,135.599 162.5,138C 153.506,138.5 144.506,138.666 135.5,138.5 Z"/></g>
<g><path style="opacity:1" fill="#655d7e" d="M 264.5,124.5 C 257.653,137.347 248.319,148.014 236.5,156.5C 234.599,154.065 233.933,151.398 234.5,148.5C 245.626,141.933 255.626,133.933 264.5,124.5 Z"/></g>
<g><path style="opacity:1" fill="#575555" d="M 134.5,129.5 C 135.403,132.391 135.736,135.391 135.5,138.5C 133.5,138.5 131.5,138.5 129.5,138.5C 128.957,138.56 128.624,138.893 128.5,139.5C 131.447,140.321 134.447,140.821 137.5,141C 142.94,147.712 146.94,155.212 149.5,163.5C 147.5,165.167 145.5,166.833 143.5,168.5C 140.5,168.5 137.5,168.5 134.5,168.5C 133.513,161.358 130.513,155.192 125.5,150C 126.445,143.212 126.778,136.379 126.5,129.5C 129.167,129.5 131.833,129.5 134.5,129.5 Z"/></g>
<g><path style="opacity:1" fill="#1c1b22" d="M 167.5,139.5 C 166.027,136.553 164.527,133.553 163,130.5C 162.617,131.056 162.117,131.389 161.5,131.5C 161.167,131.5 160.833,131.5 160.5,131.5C 162.606,129.281 163.606,126.615 163.5,123.5C 161.418,123.528 159.584,122.861 158,121.5C 157.536,122.094 157.369,122.761 157.5,123.5C 156.778,123.918 156.278,124.584 156,125.5C 155.601,125.272 155.435,124.938 155.5,124.5C 155.702,122.011 155.202,119.677 154,117.5C 142.22,104.287 135.72,88.9539 134.5,71.5C 149.66,82.2471 164.993,92.7471 180.5,103C 179.552,103.483 178.552,103.649 177.5,103.5C 177.822,107.747 176.989,111.747 175,115.5C 168.5,121.585 163.5,120.585 160,112.5C 158.758,105.836 159.592,99.5029 162.5,93.5C 161.833,92.1667 161.167,92.1667 160.5,93.5C 156.059,101.368 154.725,109.701 156.5,118.5C 161.369,121.736 166.703,123.903 172.5,125C 199.272,128.115 223.939,122.448 246.5,108C 248.5,107.333 250.5,107.333 252.5,108C 251.207,108.49 249.873,108.657 248.5,108.5C 247.127,127.051 237.793,139.884 220.5,147C 201.452,153.246 183.785,150.746 167.5,139.5 Z"/></g>
<g><path style="opacity:1" fill="#e78295" d="M 204.5,132.5 C 206.927,134.558 209.593,136.391 212.5,138C 215.118,140.106 217.118,142.606 218.5,145.5C 204.355,150.026 190.355,149.36 176.5,143.5C 175.057,138.042 176.723,133.708 181.5,130.5C 182.183,130.863 182.85,131.196 183.5,131.5C 184.167,131.5 184.833,131.5 185.5,131.5C 186.837,130.685 187.837,129.518 188.5,128C 191.833,127.333 195.167,127.333 198.5,128C 199.532,130.874 201.532,132.374 204.5,132.5 Z"/></g>
<g><path style="opacity:1" fill="#d8d9da" d="M 185.5,131.5 C 184.833,131.5 184.167,131.5 183.5,131.5C 183.489,129.983 182.823,128.816 181.5,128C 185.472,126.889 186.806,128.055 185.5,131.5 Z"/></g>
<g><path style="opacity:1" fill="#e1e1e2" d="M 205.5,125.5 C 206.212,127.794 205.379,129.794 203,131.5C 199.457,127.874 200.29,125.874 205.5,125.5 Z"/></g>
<g><path style="opacity:1" fill="#edeeee" d="M 174.5,129.5 C 173.395,130.6 172.062,131.267 170.5,131.5C 170.579,130.07 170.246,128.736 169.5,127.5C 171.045,126.548 172.712,126.215 174.5,126.5C 174.5,127.5 174.5,128.5 174.5,129.5 Z"/></g>
<g><path style="opacity:1" fill="#872c02" d="M 170.5,131.5 C 170.369,132.376 170.702,133.043 171.5,133.5C 173.288,132.717 174.288,131.384 174.5,129.5C 176.194,127.562 178.194,127.229 180.5,128.5C 176.452,131.928 173.952,136.261 173,141.5C 168.647,138.119 165.814,133.786 164.5,128.5C 164.719,127.062 165.219,125.729 166,124.5C 167.524,126.898 169.024,129.231 170.5,131.5 Z"/></g>
<g><path style="opacity:1" fill="#dedfe0" d="M 222.5,124.5 C 219.216,131.214 216.549,130.881 214.5,123.5C 217.199,123.534 219.699,122.867 222,121.5C 222.483,122.448 222.649,123.448 222.5,124.5 Z"/></g>
<g><path style="opacity:1" fill="#eceded" d="M 239.5,113.5 C 240.124,113.917 240.457,114.584 240.5,115.5C 239.031,119.043 238.031,122.709 237.5,126.5C 233.455,126.13 230.455,124.13 228.5,120.5C 232.401,118.392 236.067,116.059 239.5,113.5 Z"/></g>
<g><path style="opacity:1" fill="#c87182" d="M 218.5,145.5 C 217.118,142.606 215.118,140.106 212.5,138C 209.593,136.391 206.927,134.558 204.5,132.5C 207.27,124.587 211.27,123.754 216.5,130C 220.711,130.817 222.711,128.984 222.5,124.5C 223.283,122.924 224.45,121.591 226,120.5C 228.79,124.126 232.29,126.792 236.5,128.5C 237.799,127.91 238.632,126.91 239,125.5C 240.131,121.106 241.465,116.773 243,112.5C 244.471,110.128 245.637,110.128 246.5,112.5C 243.464,128.937 234.131,139.937 218.5,145.5 Z"/></g>
<g><path style="opacity:1" fill="#e7cc03" d="M 175.5,101.5 C 176.681,104.362 176.681,107.362 175.5,110.5C 174.167,107.5 174.167,104.5 175.5,101.5 Z"/></g>
<g><path style="opacity:1" fill="#94860d" d="M 175.5,101.5 C 174.167,104.5 174.167,107.5 175.5,110.5C 175.291,111.922 174.791,113.255 174,114.5C 173.346,115.696 172.846,115.696 172.5,114.5C 173.116,109.849 173.782,105.182 174.5,100.5C 175.107,100.624 175.44,100.957 175.5,101.5 Z"/></g>
<g><path style="opacity:1" fill="#e2c805" d="M 163.5,94.5 C 164.376,94.3691 165.043,94.7025 165.5,95.5C 163.084,102.846 162.917,110.18 165,117.5C 161.548,114.483 160.048,110.65 160.5,106C 160.387,101.844 161.387,98.0108 163.5,94.5 Z"/></g>
<g><path style="opacity:1" fill="#f2d602" d="M 166.5,96.5 C 168.679,96.84 170.512,97.84 172,99.5C 172.717,105.225 172.384,110.891 171,116.5C 168.546,118.013 166.879,117.346 166,114.5C 165.212,108.418 165.379,102.418 166.5,96.5 Z"/></g>
<g><path style="opacity:1" fill="#d1013f" d="M 155.5,88.5 C 157.022,89.4312 158.355,90.5979 159.5,92C 156.024,98.7282 153.858,105.895 153,113.5C 148.303,109.306 147.303,104.306 150,98.5C 151.592,94.9789 153.425,91.6456 155.5,88.5 Z"/></g>
<g><path style="opacity:1" fill="#d4013f" d="M 143.5,81.5 C 147.726,82.6169 151.393,84.7836 154.5,88C 150.805,92.3541 147.971,97.1874 146,102.5C 139.913,96.0034 139.079,89.0034 143.5,81.5 Z"/></g>
<g><path style="opacity:1" fill="#b70338" d="M 135.5,74.5 C 138.286,76.1126 140.953,77.946 143.5,80C 141.623,82.2513 140.123,84.7513 139,87.5C 136.91,83.4006 135.744,79.0672 135.5,74.5 Z"/></g>
<g><path style="opacity:1" fill="#332b2c" d="M 174.5,129.5 C 174.288,131.384 173.288,132.717 171.5,133.5C 170.702,133.043 170.369,132.376 170.5,131.5C 172.062,131.267 173.395,130.6 174.5,129.5 Z"/></g>
<g><path style="opacity:1" fill="#7e769b" d="M 351.5,150.5 C 350.942,151.79 349.942,152.623 348.5,153C 344.582,154.156 340.582,154.656 336.5,154.5C 335.313,152.928 334.313,151.261 333.5,149.5C 332.859,142.931 334.359,136.931 338,131.5C 341.039,135.945 343.706,140.612 346,145.5C 347.704,147.373 349.537,149.04 351.5,150.5 Z"/></g>
<g><path style="opacity:1" fill="#686382" d="M 167.5,139.5 C 164.529,137.557 162.529,134.891 161.5,131.5C 162.117,131.389 162.617,131.056 163,130.5C 164.527,133.553 166.027,136.553 167.5,139.5 Z"/></g>
<g><path style="opacity:1" fill="#3c3938" d="M 129.5,138.5 C 140.328,139.549 151.328,140.382 162.5,141C 163.406,142.699 163.739,144.533 163.5,146.5C 163.414,147.496 163.748,148.329 164.5,149C 160.292,154.709 155.292,159.542 149.5,163.5C 146.94,155.212 142.94,147.712 137.5,141C 134.447,140.821 131.447,140.321 128.5,139.5C 128.624,138.893 128.957,138.56 129.5,138.5 Z"/></g>
<g><path style="opacity:1" fill="#645d7d" d="M 196.5,170.5 C 196.739,168.533 196.406,166.699 195.5,165C 184.369,162.436 174.702,157.27 166.5,149.5C 165.833,147.833 165.167,146.167 164.5,144.5C 164.343,143.127 164.51,141.793 165,140.5C 174.271,149.718 185.438,155.052 198.5,156.5C 198.008,161.324 197.341,165.99 196.5,170.5 Z"/></g>
<g><path style="opacity:1" fill="#d4013f" d="M 333.5,152.5 C 333.351,153.552 333.517,154.552 334,155.5C 335.685,157.017 337.185,158.684 338.5,160.5C 334.238,163.423 329.571,164.59 324.5,164C 319.882,157.848 320.882,153.014 327.5,149.5C 329.117,148.962 330.784,148.629 332.5,148.5C 332.232,150.099 332.566,151.432 333.5,152.5 Z"/></g>
<g><path style="opacity:1" fill="#635c7c" d="M 351.5,150.5 C 356.012,153.257 360.679,155.757 365.5,158C 359.182,161.08 352.515,162.58 345.5,162.5C 343.231,161.024 340.898,159.524 338.5,158C 337.177,157.184 336.511,156.017 336.5,154.5C 340.582,154.656 344.582,154.156 348.5,153C 349.942,152.623 350.942,151.79 351.5,150.5 Z"/></g>
<g><path style="opacity:1" fill="#3d3938" d="M 343.5,163.5 C 342.861,164.097 342.528,164.93 342.5,166C 343.341,171.213 344.341,176.38 345.5,181.5C 341.236,179.745 337.07,177.745 333,175.5C 331.437,176.102 331.604,176.935 333.5,178C 336.239,179.026 338.572,180.526 340.5,182.5C 317.738,183.029 301.405,193.363 291.5,213.5C 287.518,208.905 283.518,204.238 279.5,199.5C 278.479,200.002 278.312,200.668 279,201.5C 282.049,205.043 284.882,208.709 287.5,212.5C 275.903,208.557 264.237,208.557 252.5,212.5C 253.963,203.074 257.963,194.907 264.5,188C 268.149,189.56 271.983,191.06 276,192.5C 277.711,192.561 279.044,191.894 280,190.5C 281.225,183.245 281.892,175.911 282,168.5C 286.214,163.954 290.047,159.121 293.5,154C 302.873,159.097 312.707,163.597 323,167.5C 329.044,165.989 335.044,164.322 341,162.5C 342.07,162.528 342.903,162.861 343.5,163.5 Z"/></g>
<g><path style="opacity:1" fill="#7d759a" d="M 131.5,174.5 C 127.818,174.665 124.152,174.499 120.5,174C 118.68,173.8 117.347,172.966 116.5,171.5C 119.744,166.014 122.744,160.347 125.5,154.5C 131.741,159.889 133.741,166.556 131.5,174.5 Z"/></g>
<g><path style="opacity:1" fill="#3d3938" d="M 216.5,209.5 C 215.711,209.783 215.044,210.283 214.5,211C 204.019,209.863 195.019,212.863 187.5,220C 183.118,220.292 178.785,220.792 174.5,221.5C 170.992,210.728 163.659,204.061 152.5,201.5C 156.651,198.197 160.985,195.03 165.5,192C 164.5,191.333 163.5,191.333 162.5,192C 158.806,194.178 155.139,196.345 151.5,198.5C 152.801,194.624 153.467,190.624 153.5,186.5C 153.461,184.048 152.794,182.048 151.5,180.5C 151.5,180.167 151.5,179.833 151.5,179.5C 158.022,175.991 164.022,171.658 169.5,166.5C 169.833,167 170.167,167.5 170.5,168C 167.919,175.07 167.919,182.07 170.5,189C 175.255,188.553 179.755,187.053 184,184.5C 195.895,191.276 208.728,193.942 222.5,192.5C 224.465,199.606 222.465,205.273 216.5,209.5 Z"/></g>
<g><path style="opacity:1" fill="#d2013f" d="M 143.5,169.5 C 147.459,171.073 149.125,174.073 148.5,178.5C 148.586,179.496 148.252,180.329 147.5,181C 141.558,182.406 135.558,182.739 129.5,182C 132.635,178.428 134.302,174.262 134.5,169.5C 137.5,169.5 140.5,169.5 143.5,169.5 Z"/></g>
<g><path style="opacity:1" fill="#645c7d" d="M 116.5,171.5 C 117.347,172.966 118.68,173.8 120.5,174C 124.152,174.499 127.818,174.665 131.5,174.5C 126.494,185.129 118.161,188.963 106.5,186C 104.22,185.767 102.22,184.934 100.5,183.5C 106.749,180.566 112.082,176.566 116.5,171.5 Z"/></g>
<g><path style="opacity:1" fill="#13181e" d="M 345.5,181.5 C 372.605,197.223 399.272,213.723 425.5,231C 427.329,232.113 428.163,233.613 428,235.5C 399.456,216.786 370.289,199.119 340.5,182.5C 338.572,180.526 336.239,179.026 333.5,178C 331.604,176.935 331.437,176.102 333,175.5C 337.07,177.745 341.236,179.745 345.5,181.5 Z"/></g>
<g><path style="opacity:1" fill="#585656" d="M 151.5,180.5 C 152.794,182.048 153.461,184.048 153.5,186.5C 153.467,190.624 152.801,194.624 151.5,198.5C 126.619,215.194 103.285,234.027 81.5,255C 82.1667,255.667 82.8333,255.667 83.5,255C 104.965,235.016 127.965,217.183 152.5,201.5C 163.659,204.061 170.992,210.728 174.5,221.5C 161.325,227.175 151.992,236.675 146.5,250C 142.222,249.403 139.389,246.903 138,242.5C 132.978,236.671 129.811,237.671 128.5,245.5C 126.099,246.358 124.099,247.691 122.5,249.5C 117.821,249.334 113.155,249.501 108.5,250C 108.043,250.414 107.709,250.914 107.5,251.5C 109.733,256.401 113.066,260.401 117.5,263.5C 122.971,276.643 132.638,284.643 146.5,287.5C 148.512,287.16 150.512,286.827 152.5,286.5C 155.786,283.962 158.119,280.629 159.5,276.5C 169.225,273.111 179.225,271.111 189.5,270.5C 192.64,272.473 195.64,274.64 198.5,277C 189.102,286.316 186.435,297.316 190.5,310C 188.722,313.241 186.055,315.575 182.5,317C 165.55,315.656 149.05,317.823 133,323.5C 123.498,292.164 102.998,272.164 71.5,263.5C 74.8301,235.158 70.1634,208.158 57.5,182.5C 57.8333,182.167 58.1667,181.833 58.5,181.5C 62.3068,183.286 66.3068,184.452 70.5,185C 78.5296,185.771 86.5296,185.604 94.5,184.5C 102.444,188.199 110.777,189.365 119.5,188C 121.779,187.527 123.779,186.527 125.5,185C 132.885,184.801 140.218,184.135 147.5,183C 148.984,182.338 150.317,181.504 151.5,180.5 Z"/></g>
<g><path style="opacity:1" fill="#1a1921" d="M 301.5,114.5 C 302.167,114.5 302.5,114.833 302.5,115.5C 302.145,118.067 301.479,120.567 300.5,123C 300.833,123.5 301.167,124 301.5,124.5C 304.373,123.225 307.373,122.392 310.5,122C 318.51,121.558 326.51,121.058 334.5,120.5C 334.5,121.167 334.5,121.833 334.5,122.5C 322.329,122.072 310.496,123.739 299,127.5C 298.399,129.137 297.899,130.803 297.5,132.5C 304.465,141.105 313.465,146.439 324.5,148.5C 325.209,149.404 326.209,149.737 327.5,149.5C 320.882,153.014 319.882,157.848 324.5,164C 329.571,164.59 334.238,163.423 338.5,160.5C 337.185,158.684 335.685,157.017 334,155.5C 333.517,154.552 333.351,153.552 333.5,152.5C 333.5,151.5 333.5,150.5 333.5,149.5C 334.313,151.261 335.313,152.928 336.5,154.5C 336.511,156.017 337.177,157.184 338.5,158C 340.898,159.524 343.231,161.024 345.5,162.5C 344.833,162.5 344.5,162.833 344.5,163.5C 344.167,163.5 343.833,163.5 343.5,163.5C 342.903,162.861 342.07,162.528 341,162.5C 335.044,164.322 329.044,165.989 323,167.5C 312.707,163.597 302.873,159.097 293.5,154C 290.047,159.121 286.214,163.954 282,168.5C 281.892,175.911 281.225,183.245 280,190.5C 279.044,191.894 277.711,192.561 276,192.5C 271.983,191.06 268.149,189.56 264.5,188C 257.963,194.907 253.963,203.074 252.5,212.5C 252.113,217.08 252.947,221.414 255,225.5C 259.435,230.056 264.102,234.39 269,238.5C 277.39,251.628 277.557,264.795 269.5,278C 270.185,280.54 271.019,283.04 272,285.5C 273.027,291.929 270.86,296.929 265.5,300.5C 265.158,299.662 264.492,299.328 263.5,299.5C 263.5,298.833 263.833,298.5 264.5,298.5C 268.424,296.151 270.09,292.651 269.5,288C 269.822,281.902 268.989,281.402 267,286.5C 266.346,287.696 265.846,287.696 265.5,286.5C 267.442,282.255 267.775,277.921 266.5,273.5C 264.45,272.337 262.45,272.504 260.5,274C 258.131,276.57 256.131,279.404 254.5,282.5C 254.167,282.167 253.833,281.833 253.5,281.5C 254.666,278.497 256.333,275.83 258.5,273.5C 255.273,271.103 251.606,269.936 247.5,270C 244.5,269.333 241.5,269.333 238.5,270C 240.923,270.732 242.09,272.232 242,274.5C 237.728,270.242 232.561,268.242 226.5,268.5C 226.571,274.14 228.904,278.64 233.5,282C 231.613,282.163 230.113,281.329 229,279.5C 227.377,285.568 228.877,290.568 233.5,294.5C 235.809,296.987 238.476,298.987 241.5,300.5C 241.5,300.833 241.5,301.167 241.5,301.5C 231.653,298.987 226.653,292.654 226.5,282.5C 217.167,281.833 217.167,281.167 226.5,280.5C 226.043,275.799 225.376,271.132 224.5,266.5C 226.199,266.66 227.866,266.494 229.5,266C 228.188,263.52 227.188,261.02 226.5,258.5C 225.477,238.025 235.143,227.859 255.5,228C 243.743,215.976 230.077,212.643 214.5,218C 209.358,221.642 204.358,225.475 199.5,229.5C 198.106,227.418 198.439,225.751 200.5,224.5C 200.369,225.239 200.536,225.906 201,226.5C 207.934,219.203 216.268,214.536 226,212.5C 234.413,213.471 242.246,216.138 249.5,220.5C 251.682,213.361 249.349,208.194 242.5,205C 237.061,202.629 231.394,201.963 225.5,203C 222.924,206.082 219.924,208.582 216.5,210.5C 216.5,210.167 216.5,209.833 216.5,209.5C 222.465,205.273 224.465,199.606 222.5,192.5C 208.728,193.942 195.895,191.276 184,184.5C 179.755,187.053 175.255,188.553 170.5,189C 167.919,182.07 167.919,175.07 170.5,168C 170.167,167.5 169.833,167 169.5,166.5C 164.022,171.658 158.022,175.991 151.5,179.5C 150.391,179.443 149.391,179.11 148.5,178.5C 149.125,174.073 147.459,171.073 143.5,169.5C 143.5,169.167 143.5,168.833 143.5,168.5C 145.5,166.833 147.5,165.167 149.5,163.5C 155.292,159.542 160.292,154.709 164.5,149C 163.748,148.329 163.414,147.496 163.5,146.5C 164.338,146.158 164.672,145.492 164.5,144.5C 165.167,146.167 165.833,147.833 166.5,149.5C 167.685,154.903 169.185,160.237 171,165.5C 171.5,164.5 172,163.5 172.5,162.5C 173.002,161.479 173.668,161.312 174.5,162C 171.024,169.776 169.691,177.943 170.5,186.5C 176.628,186.18 182.128,184.18 187,180.5C 187.617,181.449 187.451,182.282 186.5,183C 188.713,185.274 191.379,186.774 194.5,187.5C 195.466,185.604 195.799,183.604 195.5,181.5C 196.167,181.5 196.5,181.833 196.5,182.5C 196.5,184.5 196.5,186.5 196.5,188.5C 212.587,191.36 228.587,190.86 244.5,187C 246.119,186.764 247.119,185.931 247.5,184.5C 247.833,184.5 248.167,184.5 248.5,184.5C 251.732,185.093 254.732,184.093 257.5,181.5C 256.289,179.578 254.956,177.745 253.5,176C 253.833,175.833 254.167,175.667 254.5,175.5C 277.976,198.929 285.976,194.095 278.5,161C 279.424,159.189 280.257,159.355 281,161.5C 290.014,146.804 296.847,131.137 301.5,114.5 Z"/></g>
<g><path style="opacity:1" fill="#c8013c" d="M 155.5,160.5 C 159.985,160.647 162.652,162.98 163.5,167.5C 160.206,171.788 156.206,175.455 151.5,178.5C 151.001,174.803 149.667,171.469 147.5,168.5C 150.494,166.173 153.161,163.506 155.5,160.5 Z"/></g>
<g><path style="opacity:1" fill="#a40434" d="M 289.5,150.5 C 291.273,151.314 291.773,152.648 291,154.5C 288,158.167 285,161.833 282,165.5C 284.438,160.623 286.938,155.623 289.5,150.5 Z"/></g>
<g><path style="opacity:1" fill="#80789e" d="M 234.5,158.5 C 238.833,167.167 243.167,175.833 247.5,184.5C 247.119,185.931 246.119,186.764 244.5,187C 228.587,190.86 212.587,191.36 196.5,188.5C 196.5,186.5 196.5,184.5 196.5,182.5C 198.022,177.382 199.022,172.049 199.5,166.5C 211.865,166.825 223.532,164.158 234.5,158.5 Z"/></g>
<g><path style="opacity:1" fill="#ce023e" d="M 163.5,152.5 C 164.75,152.577 165.583,153.244 166,154.5C 166.631,157.393 167.464,160.226 168.5,163C 168.046,164.622 167.046,165.788 165.5,166.5C 164.64,162.605 162.307,160.105 158.5,159C 160.79,157.223 162.457,155.056 163.5,152.5 Z"/></g>
<g><path style="opacity:1" fill="#655e7e" d="M 234.5,158.5 C 223.532,164.158 211.865,166.825 199.5,166.5C 199.833,163.167 200.167,159.833 200.5,156.5C 211.068,157.182 221.068,155.182 230.5,150.5C 232.372,152.91 233.705,155.577 234.5,158.5 Z"/></g>
<g><path style="opacity:1" fill="#7f779d" d="M 166.5,149.5 C 174.702,157.27 184.369,162.436 195.5,165C 196.406,166.699 196.739,168.533 196.5,170.5C 196.577,174.215 196.244,177.881 195.5,181.5C 195.799,183.604 195.466,185.604 194.5,187.5C 191.379,186.774 188.713,185.274 186.5,183C 187.451,182.282 187.617,181.449 187,180.5C 182.128,184.18 176.628,186.18 170.5,186.5C 169.691,177.943 171.024,169.776 174.5,162C 173.668,161.312 173.002,161.479 172.5,162.5C 172,163.5 171.5,164.5 171,165.5C 169.185,160.237 167.685,154.903 166.5,149.5 Z"/></g>
<g><path style="opacity:1" fill="#d3013f" d="M 311.5,146.5 C 315.145,147.987 318.812,149.487 322.5,151C 318.323,155.954 318.657,160.62 323.5,165C 317.538,164.789 312.372,162.622 308,158.5C 306.593,153.643 307.76,149.643 311.5,146.5 Z"/></g>
<g><path style="opacity:1" fill="#c4013b" d="M 295.5,135.5 C 300.432,138.428 305.099,141.761 309.5,145.5C 306.392,148.856 304.725,152.856 304.5,157.5C 299.457,154.985 294.79,151.985 290.5,148.5C 292.766,144.366 294.432,140.033 295.5,135.5 Z"/></g>
<g><path style="opacity:1" fill="#b40237" d="M 258.5,183.5 C 263.95,184.23 264.617,186.23 260.5,189.5C 258.972,188.139 257.305,186.972 255.5,186C 256.571,185.148 257.571,184.315 258.5,183.5 Z"/></g>
<g><path style="opacity:1" fill="#bb0138" d="M 253.5,199.5 C 253.489,197.983 252.823,196.816 251.5,196C 243.27,193.117 234.937,192.784 226.5,195C 225.193,196.943 225.193,198.777 226.5,200.5C 226.44,201.043 226.107,201.376 225.5,201.5C 224.516,198.572 224.183,195.572 224.5,192.5C 234.282,191.758 243.782,189.758 253,186.5C 255.373,187.424 257.206,188.924 258.5,191C 257.444,194.293 255.777,197.126 253.5,199.5 Z"/></g>
<g><path style="opacity:1" fill="#e00043" d="M 253.5,199.5 C 252.637,202.923 251.47,206.256 250,209.5C 243.721,202.444 235.888,199.444 226.5,200.5C 225.193,198.777 225.193,196.943 226.5,195C 234.937,192.784 243.27,193.117 251.5,196C 252.823,196.816 253.489,197.983 253.5,199.5 Z"/></g>
<g><path style="opacity:1" fill="#15191f" d="M 152.5,201.5 C 127.965,217.183 104.965,235.016 83.5,255C 82.8333,255.667 82.1667,255.667 81.5,255C 103.285,234.027 126.619,215.194 151.5,198.5C 155.139,196.345 158.806,194.178 162.5,192C 163.5,191.333 164.5,191.333 165.5,192C 160.985,195.03 156.651,198.197 152.5,201.5 Z"/></g>
<g><path style="opacity:1" fill="#da0141" d="M 200.5,224.5 C 202.92,220.9 205.586,217.4 208.5,214C 211.792,213.996 214.458,212.83 216.5,210.5C 219.924,208.582 222.924,206.082 225.5,203C 231.394,201.963 237.061,202.629 242.5,205C 249.349,208.194 251.682,213.361 249.5,220.5C 242.246,216.138 234.413,213.471 226,212.5C 216.268,214.536 207.934,219.203 201,226.5C 200.536,225.906 200.369,225.239 200.5,224.5 Z"/></g>
<g><path style="opacity:1" fill="#15191f" d="M 291.5,213.5 C 312.094,239.839 331.094,267.339 348.5,296C 348.167,296.167 347.833,296.333 347.5,296.5C 328.484,267.804 308.484,239.804 287.5,212.5C 284.882,208.709 282.049,205.043 279,201.5C 278.312,200.668 278.479,200.002 279.5,199.5C 283.518,204.238 287.518,208.905 291.5,213.5 Z"/></g>
<g><path style="opacity:1" fill="#80789e" d="M 200.5,224.5 C 198.439,225.751 198.106,227.418 199.5,229.5C 204.358,225.475 209.358,221.642 214.5,218C 230.077,212.643 243.743,215.976 255.5,228C 235.143,227.859 225.477,238.025 226.5,258.5C 226.5,259.5 226.5,260.5 226.5,261.5C 209.623,263.931 195.456,258.931 184,246.5C 182.522,243.842 181.355,241.175 180.5,238.5C 182.61,227.136 188.944,218.97 199.5,214C 201.833,213.333 204.167,213.333 206.5,214C 203.572,217.029 201.572,220.529 200.5,224.5 Z"/></g>
<g><path style="opacity:1" fill="#80789e" d="M 178.5,252.5 C 178.631,253.376 178.298,254.043 177.5,254.5C 170.004,257.413 163.004,261.079 156.5,265.5C 154.25,260.673 151.25,256.34 147.5,252.5C 152.969,238.531 162.636,228.698 176.5,223C 179.227,222.182 181.894,222.348 184.5,223.5C 178.148,232.26 176.148,241.926 178.5,252.5 Z"/></g>
<g><path style="opacity:1" fill="#80789e" d="M 272.5,258.5 C 258.878,265.565 245.545,265.065 232.5,257C 229.814,254.454 228.814,251.287 229.5,247.5C 235.059,231.226 245.726,226.726 261.5,234C 269.384,240.269 273.051,248.436 272.5,258.5 Z"/></g>
<g><path style="opacity:1" fill="#655d7e" d="M 180.5,238.5 C 181.355,241.175 182.522,243.842 184,246.5C 195.456,258.931 209.623,263.931 226.5,261.5C 226.5,260.5 226.5,259.5 226.5,258.5C 227.188,261.02 228.188,263.52 229.5,266C 227.866,266.494 226.199,266.66 224.5,266.5C 225.376,271.132 226.043,275.799 226.5,280.5C 217.167,281.167 217.167,281.833 226.5,282.5C 226.653,292.654 231.653,298.987 241.5,301.5C 242.649,301.791 243.316,302.624 243.5,304C 242.966,307.108 241.966,309.941 240.5,312.5C 238.834,305.348 234.834,299.848 228.5,296C 216.528,288.648 204.194,287.815 191.5,293.5C 192.732,287.869 195.399,283.035 199.5,279C 203.467,279.54 207.467,279.874 211.5,280C 190.102,274.139 179.769,260.306 180.5,238.5 Z"/></g>
<g><path style="opacity:1" fill="#7e769b" d="M 149.5,284.5 C 148.167,284.5 146.833,284.5 145.5,284.5C 146.029,278.056 143.695,272.889 138.5,269C 135.066,266.565 131.4,264.565 127.5,263C 124.808,262.57 122.141,262.737 119.5,263.5C 118.895,260.873 118.395,258.207 118,255.5C 117.667,257.5 117.333,259.5 117,261.5C 114.38,258.424 111.88,255.258 109.5,252C 113.155,249.847 116.655,250.014 120,252.5C 121.045,251.627 121.878,250.627 122.5,249.5C 124.435,248.85 126.435,248.517 128.5,248.5C 128.343,249.873 128.51,251.207 129,252.5C 131.116,238.382 135.116,238.049 141,251.5C 142.016,252.634 142.683,252.301 143,250.5C 152.541,257.909 156.874,267.576 156,279.5C 154.809,282.534 152.642,284.201 149.5,284.5 Z"/></g>
<g><path style="opacity:1" fill="#665e7f" d="M 178.5,252.5 C 180.828,257.981 183.828,263.147 187.5,268C 178.001,269.069 168.667,271.236 159.5,274.5C 158.296,271.556 157.296,268.556 156.5,265.5C 163.004,261.079 170.004,257.413 177.5,254.5C 178.298,254.043 178.631,253.376 178.5,252.5 Z"/></g>
<g><path style="opacity:1" fill="#655d7e" d="M 229.5,247.5 C 228.814,251.287 229.814,254.454 232.5,257C 245.545,265.065 258.878,265.565 272.5,258.5C 273.034,263.901 271.867,268.901 269,273.5C 266.767,270.4 263.934,269.734 260.5,271.5C 256.803,270.434 253.136,269.268 249.5,268C 244.958,267.254 240.458,267.421 236,268.5C 231.44,267.899 229.106,265.232 229,260.5C 228.186,255.98 228.353,251.646 229.5,247.5 Z"/></g>
<g><path style="opacity:1" fill="#665e7f" d="M 149.5,284.5 C 143.343,285.625 137.677,284.125 132.5,280C 126.808,275.486 122.475,269.986 119.5,263.5C 122.141,262.737 124.808,262.57 127.5,263C 131.4,264.565 135.066,266.565 138.5,269C 143.695,272.889 146.029,278.056 145.5,284.5C 146.833,284.5 148.167,284.5 149.5,284.5 Z"/></g>
<g><path style="opacity:1" fill="#7f789d" d="M 264.5,298.5 C 263.349,293.851 260.349,291.018 255.5,290C 249.5,289.333 243.5,289.333 237.5,290C 235.249,290.748 233.916,292.248 233.5,294.5C 228.877,290.568 227.377,285.568 229,279.5C 230.113,281.329 231.613,282.163 233.5,282C 228.904,278.64 226.571,274.14 226.5,268.5C 232.561,268.242 237.728,270.242 242,274.5C 242.09,272.232 240.923,270.732 238.5,270C 241.5,269.333 244.5,269.333 247.5,270C 251.606,269.936 255.273,271.103 258.5,273.5C 256.333,275.83 254.666,278.497 253.5,281.5C 253.833,281.833 254.167,282.167 254.5,282.5C 256.131,279.404 258.131,276.57 260.5,274C 262.45,272.504 264.45,272.337 266.5,273.5C 267.775,277.921 267.442,282.255 265.5,286.5C 265.846,287.696 266.346,287.696 267,286.5C 268.989,281.402 269.822,281.902 269.5,288C 270.09,292.651 268.424,296.151 264.5,298.5 Z"/></g>
<g><path style="opacity:1" fill="#655d7d" d="M 264.5,298.5 C 263.833,298.5 263.5,298.833 263.5,299.5C 256.31,301.822 248.977,302.155 241.5,300.5C 238.476,298.987 235.809,296.987 233.5,294.5C 233.916,292.248 235.249,290.748 237.5,290C 243.5,289.333 249.5,289.333 255.5,290C 260.349,291.018 263.349,293.851 264.5,298.5 Z"/></g>
<g><path style="opacity:1" fill="#80789e" d="M 240.5,312.5 C 238.205,317.962 234.372,321.962 229,324.5C 225.566,321.066 222.066,317.566 218.5,314C 210.358,309.391 201.691,308.224 192.5,310.5C 191.708,304.87 191.375,299.203 191.5,293.5C 204.194,287.815 216.528,288.648 228.5,296C 234.834,299.848 238.834,305.348 240.5,312.5 Z"/></g>
<g><path style="opacity:1" fill="#171c22" d="M 152.5,286.5 C 153.043,286.56 153.376,286.893 153.5,287.5C 148.246,296.339 143.246,305.339 138.5,314.5C 137.998,315.521 137.332,315.688 136.5,315C 141.26,305.099 146.594,295.599 152.5,286.5 Z"/></g>
<g><path style="opacity:1" fill="#81799e" d="M 228.5,337.5 C 219.155,350.785 206.489,355.285 190.5,351C 184.831,348.683 180.164,345.183 176.5,340.5C 175.899,327.548 181.565,318.382 193.5,313C 210.563,308.72 222.063,314.887 228,331.5C 228.495,333.473 228.662,335.473 228.5,337.5 Z"/></g>
<g><path style="opacity:1" fill="#655e7e" d="M 228.5,337.5 C 227.918,354.582 219.085,363.582 202,364.5C 186.931,363.601 178.431,355.601 176.5,340.5C 180.164,345.183 184.831,348.683 190.5,351C 206.489,355.285 219.155,350.785 228.5,337.5 Z"/></g>
<g><path style="opacity:1" fill="#7c7499" d="M 291.5,347.5 C 296.69,346.935 297.69,348.602 294.5,352.5C 281.597,355.001 280.597,353.335 291.5,347.5 Z"/></g>
<g><path style="opacity:1" fill="#80799e" d="M 241.5,373.5 C 241.789,376.649 241.289,379.649 240,382.5C 229.95,392.761 217.784,396.595 203.5,394C 198.894,392.694 194.561,390.86 190.5,388.5C 188.354,385.088 187.354,381.255 187.5,377C 187.649,373.06 188.316,369.227 189.5,365.5C 205.117,370.388 217.95,366.388 228,353.5C 235.847,357.857 240.347,364.524 241.5,373.5 Z"/></g>
<g><path style="opacity:1" fill="#81799e" d="M 299.5,358.5 C 298.482,362.042 299.482,365.209 302.5,368C 304.5,369.333 306.5,370.667 308.5,372C 311.367,372.801 314.034,372.634 316.5,371.5C 318.624,373.059 320.291,375.059 321.5,377.5C 322.052,375.997 322.052,374.331 321.5,372.5C 330.19,370.991 338.357,367.991 346,363.5C 347.03,363.836 347.53,364.503 347.5,365.5C 347.082,376.504 342.748,385.671 334.5,393C 332.423,394.705 330.09,395.872 327.5,396.5C 326.326,397.514 325.66,398.847 325.5,400.5C 319.212,406.887 311.546,410.72 302.5,412C 294.5,412.667 286.5,412.667 278.5,412C 277.584,411.722 276.918,411.222 276.5,410.5C 282.332,390.663 275.665,376.829 256.5,369C 268.653,356.007 282.986,352.507 299.5,358.5 Z"/></g>
<g><path style="opacity:1" fill="#b6b2c9" d="M 299.5,358.5 C 306.869,360.676 312.535,365.009 316.5,371.5C 314.034,372.634 311.367,372.801 308.5,372C 306.5,370.667 304.5,369.333 302.5,368C 299.482,365.209 298.482,362.042 299.5,358.5 Z"/></g>
<g><path style="opacity:1" fill="#635c7c" d="M 347.5,365.5 C 350.757,379.268 347.09,391.102 336.5,401C 333.714,403.06 330.714,404.56 327.5,405.5C 327.5,402.5 327.5,399.5 327.5,396.5C 330.09,395.872 332.423,394.705 334.5,393C 342.748,385.671 347.082,376.504 347.5,365.5 Z"/></g>
<g><path style="opacity:1" fill="#80789e" d="M 276.5,400.5 C 266.548,410.311 254.548,413.811 240.5,411C 237.833,409.667 235.167,408.333 232.5,407C 231.177,406.184 230.511,405.017 230.5,403.5C 241.292,396.191 245.958,385.858 244.5,372.5C 260.208,369.946 270.708,376.279 276,391.5C 276.498,394.482 276.665,397.482 276.5,400.5 Z"/></g>
<g><path style="opacity:1" fill="#645d7d" d="M 241.5,373.5 C 243.705,389.883 236.705,400.383 220.5,405C 206.182,407.013 196.182,401.513 190.5,388.5C 194.561,390.86 198.894,392.694 203.5,394C 217.784,396.595 229.95,392.761 240,382.5C 241.289,379.649 241.789,376.649 241.5,373.5 Z"/></g>
<g><path style="opacity:1" fill="#655e7e" d="M 325.5,400.5 C 322.139,420.362 310.472,432.195 290.5,436C 278.995,437.083 268.828,433.916 260,426.5C 259.312,425.668 259.479,425.002 260.5,424.5C 267.437,421.557 272.77,416.89 276.5,410.5C 276.918,411.222 277.584,411.722 278.5,412C 286.5,412.667 294.5,412.667 302.5,412C 311.546,410.72 319.212,406.887 325.5,400.5 Z"/></g>
<g><path style="opacity:1" fill="#655e7e" d="M 276.5,400.5 C 271.586,419.968 259.253,427.135 239.5,422C 231.884,418.558 227.551,412.724 226.5,404.5C 227.959,404.567 229.292,404.234 230.5,403.5C 230.511,405.017 231.177,406.184 232.5,407C 235.167,408.333 237.833,409.667 240.5,411C 254.548,413.811 266.548,410.311 276.5,400.5 Z"/></g>
</svg>
