<?xml version="1.0" encoding="UTF-8"?>
<!DOCTYPE svg PUBLIC "-//W3C//DTD SVG 1.1//EN" "http://www.w3.org/Graphics/SVG/1.1/DTD/svg11.dtd">
<svg xmlns="http://www.w3.org/2000/svg" version="1.1" width="436px" height="434px" style="shape-rendering:geometricPrecision; text-rendering:geometricPrecision; image-rendering:optimizeQuality; fill-rule:evenodd; clip-rule:evenodd" xmlns:xlink="http://www.w3.org/1999/xlink">
<g><path style="opacity:1" fill="#030403" d="M 194.5,-0.5 C 208.833,-0.5 223.167,-0.5 237.5,-0.5C 324.503,10.6818 385.669,56.3485 421,136.5C 428.28,156.057 433.113,176.057 435.5,196.5C 435.5,208.5 435.5,220.5 435.5,232.5C 433.795,244.412 431.795,256.412 429.5,268.5C 427.742,271.854 426.742,275.521 426.5,279.5C 424.997,283.341 423.664,287.341 422.5,291.5C 416.467,305.9 409.467,319.9 401.5,333.5C 400.662,333.842 400.328,334.508 400.5,335.5C 397.102,338.627 394.435,342.293 392.5,346.5C 390.738,347.262 389.738,348.596 389.5,350.5C 381.228,360.441 372.228,369.774 362.5,378.5C 324.047,411.948 279.38,430.282 228.5,433.5C 221.5,433.5 214.5,433.5 207.5,433.5C 197.398,432.797 187.231,431.463 177,429.5C 173.319,429.697 170.152,431.031 167.5,433.5C 166.167,433.5 164.833,433.5 163.5,433.5C 165.927,431.442 168.593,429.609 171.5,428C 167.468,427.227 163.468,426.394 159.5,425.5C 153.022,422.873 146.355,420.539 139.5,418.5C 138.833,418.5 138.167,418.5 137.5,418.5C 121.628,410.894 106.294,402.228 91.5,392.5C 86.8576,388.864 82.1909,385.197 77.5,381.5C 76.5,379.833 75.1667,378.5 73.5,377.5C 72.1667,376.5 70.8333,375.5 69.5,374.5C 9.66108,313.504 -10.5056,241.17 9,157.5C 32.5898,82.9103 81.4232,33.077 155.5,8C 168.469,4.3366 181.469,1.50326 194.5,-0.5 Z"/></g>
<g><path style="opacity:1" fill="#d9c2a5" d="M 237.5,-0.5 C 303.5,-0.5 369.5,-0.5 435.5,-0.5C 435.5,65.1667 435.5,130.833 435.5,196.5C 433.113,176.057 428.28,156.057 421,136.5C 385.669,56.3485 324.503,10.6818 237.5,-0.5 Z"/></g>
<g><path style="opacity:1" fill="#fbfbfb" d="M 252.5,24.5 C 250.833,25.1667 249.167,25.8333 247.5,26.5C 239.273,28.1136 231.939,31.6136 225.5,37C 207.23,55.6419 199.897,77.8086 203.5,103.5C 204.657,108.462 205.657,113.462 206.5,118.5C 198.13,118.894 189.797,119.728 181.5,121C 174.787,123.569 168.12,125.903 161.5,128C 139.322,109.153 117.155,90.32 95,71.5C 92.8125,72.0593 92.1458,73.3927 93,75.5C 96.5926,83.0208 100.426,90.3542 104.5,97.5C 112.108,115.385 120.274,133.051 129,150.5C 129.667,151.833 129.667,153.167 129,154.5C 127.414,156.67 126.08,159.004 125,161.5C 114.411,168.753 105.078,177.42 97,187.5C 86.9079,203.345 77.5746,219.678 69,236.5C 59.9818,250.759 47.8151,261.426 32.5,268.5C 29.7655,260.665 27.5989,252.665 26,244.5C 24.7375,230.53 24.2375,216.53 24.5,202.5C 25.9573,197.402 26.624,192.069 26.5,186.5C 40.0723,113.511 81.0723,62.6778 149.5,34C 158.629,30.5939 167.962,28.0939 177.5,26.5C 182.45,26.2301 187.117,25.2301 191.5,23.5C 211.831,20.7653 232.164,21.0987 252.5,24.5 Z"/></g>
<g><path style="opacity:1" fill="#bdbdbd" d="M 191.5,23.5 C 187.117,25.2301 182.45,26.2301 177.5,26.5C 181.883,24.7699 186.55,23.7699 191.5,23.5 Z"/></g>
<g><path style="opacity:1" fill="#9e9fa0" d="M 252.5,24.5 C 256.736,25.0085 260.736,26.0085 264.5,27.5C 263.833,27.5 263.5,27.8333 263.5,28.5C 258.341,26.8173 253.008,26.1506 247.5,26.5C 249.167,25.8333 250.833,25.1667 252.5,24.5 Z"/></g>
<g><path style="opacity:1" fill="#fbfbfb" d="M 263.5,28.5 C 263.5,27.8333 263.833,27.5 264.5,27.5C 337.497,47.6637 384.997,93.997 407,166.5C 412.405,187.21 414.238,208.21 412.5,229.5C 401.978,227.405 392.644,222.905 384.5,216C 363.572,195.143 341.072,176.31 317,159.5C 316.333,158.167 316.333,156.833 317,155.5C 321.114,148.271 324.947,140.937 328.5,133.5C 336.812,120.222 344.645,106.555 352,92.5C 353.128,90.6547 353.628,88.6547 353.5,86.5C 351.011,86.2978 348.677,86.7978 346.5,88C 322.066,102.633 297.566,117.133 273,131.5C 259.638,124.615 245.471,120.115 230.5,118C 228.002,113.721 227.002,109.054 227.5,104C 227.024,95.7592 229.19,88.2592 234,81.5C 238.456,75.3751 243.289,69.5417 248.5,64C 257.139,58.6068 264.472,59.7735 270.5,67.5C 272.776,70.7611 274.11,74.4278 274.5,78.5C 275.002,79.521 275.668,79.6877 276.5,79C 283.18,72.148 286.347,63.9813 286,54.5C 282.43,42.3149 274.93,33.6482 263.5,28.5 Z"/></g>
<g><path style="opacity:1" fill="#4fa159" d="M 268.5,34.5 C 272.188,36.1884 274.855,38.855 276.5,42.5C 278.431,47.9125 280.097,53.4125 281.5,59C 280.855,62.7692 279.522,66.2692 277.5,69.5C 275.55,66.4853 273.884,63.3187 272.5,60C 271.207,59.51 269.873,59.3433 268.5,59.5C 259.248,55.88 250.915,57.38 243.5,64C 227.768,78.0943 221.434,95.5943 224.5,116.5C 220.03,117.486 215.363,117.819 210.5,117.5C 208.604,114.54 207.604,111.207 207.5,107.5C 207.168,102.839 206.835,98.1725 206.5,93.5C 207.316,84.7943 208.316,76.1276 209.5,67.5C 212.472,57.8807 217.472,49.5473 224.5,42.5C 229.021,39.4905 233.687,36.6571 238.5,34C 248.569,30.588 258.569,30.7547 268.5,34.5 Z"/></g>
<g><path style="opacity:1" fill="#181c18" d="M 247.5,26.5 C 253.008,26.1506 258.341,26.8173 263.5,28.5C 274.93,33.6482 282.43,42.3149 286,54.5C 286.347,63.9813 283.18,72.148 276.5,79C 275.668,79.6877 275.002,79.521 274.5,78.5C 274.11,74.4278 272.776,70.7611 270.5,67.5C 271.906,67.0269 272.573,66.0269 272.5,64.5C 274.497,67.1598 275.997,70.1598 277,73.5C 282.101,66.6764 283.768,59.0097 282,50.5C 280.694,47.3793 278.86,44.7126 276.5,42.5C 274.855,38.855 272.188,36.1884 268.5,34.5C 251.773,25.632 237.107,28.2987 224.5,42.5C 217.472,49.5473 212.472,57.8807 209.5,67.5C 207.665,70.842 206.498,74.5086 206,78.5C 205.5,85.4921 205.334,92.4921 205.5,99.5C 204.673,94.3491 204.173,89.0158 204,83.5C 203.5,90.1583 203.334,96.825 203.5,103.5C 199.897,77.8086 207.23,55.6419 225.5,37C 231.939,31.6136 239.273,28.1136 247.5,26.5 Z"/></g>
<g><path style="opacity:1" fill="#558e5e" d="M 268.5,34.5 C 258.569,30.7547 248.569,30.588 238.5,34C 233.687,36.6571 229.021,39.4905 224.5,42.5C 237.107,28.2987 251.773,25.632 268.5,34.5 Z"/></g>
<g><path style="opacity:1" fill="#0e100e" d="M 268.5,59.5 C 269.833,61.1667 271.167,62.8333 272.5,64.5C 272.573,66.0269 271.906,67.0269 270.5,67.5C 264.472,59.7735 257.139,58.6068 248.5,64C 243.289,69.5417 238.456,75.3751 234,81.5C 229.19,88.2592 227.024,95.7592 227.5,104C 227.002,109.054 228.002,113.721 230.5,118C 245.471,120.115 259.638,124.615 273,131.5C 297.566,117.133 322.066,102.633 346.5,88C 348.677,86.7978 351.011,86.2978 353.5,86.5C 353.628,88.6547 353.128,90.6547 352,92.5C 344.645,106.555 336.812,120.222 328.5,133.5C 327.5,132.167 326.5,132.167 325.5,133.5C 332.777,119.779 340.444,106.279 348.5,93C 348,92.8333 347.5,92.6667 347,92.5C 321.767,107.534 296.6,122.701 271.5,138C 270.216,138.684 269.049,138.517 268,137.5C 268.019,135.893 268.185,134.226 268.5,132.5C 257.167,128.224 245.5,125.058 233.5,123C 210.778,120.272 188.778,122.938 167.5,131C 167.167,131.333 166.833,131.667 166.5,132C 169.369,135.204 172.535,138.037 176,140.5C 176.483,141.448 176.649,142.448 176.5,143.5C 175.448,143.649 174.448,143.483 173.5,143C 149.525,122.363 125.525,101.696 101.5,81C 100.668,80.3123 100.002,80.479 99.5,81.5C 102.411,86.2346 104.744,91.2346 106.5,96.5C 105.833,96.8333 105.167,97.1667 104.5,97.5C 100.426,90.3542 96.5926,83.0208 93,75.5C 92.1458,73.3927 92.8125,72.0593 95,71.5C 117.155,90.32 139.322,109.153 161.5,128C 168.12,125.903 174.787,123.569 181.5,121C 189.797,119.728 198.13,118.894 206.5,118.5C 205.657,113.462 204.657,108.462 203.5,103.5C 203.334,96.825 203.5,90.1583 204,83.5C 204.173,89.0158 204.673,94.3491 205.5,99.5C 205.565,102.428 206.232,105.095 207.5,107.5C 207.604,111.207 208.604,114.54 210.5,117.5C 215.348,118.814 220.348,118.814 225.5,117.5C 225.376,116.893 225.043,116.56 224.5,116.5C 221.434,95.5943 227.768,78.0943 243.5,64C 250.915,57.38 259.248,55.88 268.5,59.5 Z"/></g>
<g><path style="opacity:1" fill="#518c58" d="M 276.5,42.5 C 278.86,44.7126 280.694,47.3793 282,50.5C 283.768,59.0097 282.101,66.6764 277,73.5C 275.997,70.1598 274.497,67.1598 272.5,64.5C 271.167,62.8333 269.833,61.1667 268.5,59.5C 269.873,59.3433 271.207,59.51 272.5,60C 273.884,63.3187 275.55,66.4853 277.5,69.5C 279.522,66.2692 280.855,62.7692 281.5,59C 280.097,53.4125 278.431,47.9125 276.5,42.5 Z"/></g>
<g><path style="opacity:1" fill="#343732" d="M 325.5,133.5 C 318.006,145.815 311.006,158.481 304.5,171.5C 315.466,190.385 319.299,210.719 316,232.5C 312.507,247.486 305.84,260.82 296,272.5C 296.502,279.185 297.335,285.851 298.5,292.5C 292.6,291.043 286.6,290.377 280.5,290.5C 280.564,294.699 279.231,298.366 276.5,301.5C 268.04,309.459 259.707,317.626 251.5,326C 248.8,334.435 246.3,342.935 244,351.5C 243.065,336.112 243.398,320.779 245,305.5C 254.276,291.225 263.943,277.225 274,263.5C 277.333,256.833 280.667,250.167 284,243.5C 292.747,213.057 285.914,186.891 263.5,165C 248.417,153.416 231.251,147.583 212,147.5C 185.562,147.283 165.228,158.283 151,180.5C 135.145,208.187 134.478,236.187 149,264.5C 152.419,269.923 156.585,274.756 161.5,279C 173.918,286.083 182.751,296.249 188,309.5C 187.944,323.846 187.277,338.179 186,352.5C 185.836,358.975 184.836,365.309 183,371.5C 182.732,359.293 181.066,347.293 178,335.5C 171.812,321.976 163.978,309.476 154.5,298C 155.563,296.812 156.897,296.312 158.5,296.5C 158.5,295.5 158.5,294.5 158.5,293.5C 155.11,294.023 151.777,294.857 148.5,296C 144.136,298.876 139.469,301.043 134.5,302.5C 134.167,301.667 133.833,300.833 133.5,300C 135.891,290.91 136.891,281.743 136.5,272.5C 135.478,275.441 134.645,278.441 134,281.5C 130.711,277.907 128.211,273.907 126.5,269.5C 113.588,239.141 112.088,208.141 122,176.5C 124.554,169.724 127.887,163.391 132,157.5C 133.603,161.987 135.77,166.154 138.5,170C 140.237,170.612 141.237,169.946 141.5,168C 130.147,143.798 118.481,119.965 106.5,96.5C 104.744,91.2346 102.411,86.2346 99.5,81.5C 100.002,80.479 100.668,80.3123 101.5,81C 125.525,101.696 149.525,122.363 173.5,143C 174.448,143.483 175.448,143.649 176.5,143.5C 176.649,142.448 176.483,141.448 176,140.5C 172.535,138.037 169.369,135.204 166.5,132C 166.833,131.667 167.167,131.333 167.5,131C 188.778,122.938 210.778,120.272 233.5,123C 245.5,125.058 257.167,128.224 268.5,132.5C 268.185,134.226 268.019,135.893 268,137.5C 269.049,138.517 270.216,138.684 271.5,138C 296.6,122.701 321.767,107.534 347,92.5C 347.5,92.6667 348,92.8333 348.5,93C 340.444,106.279 332.777,119.779 325.5,133.5 Z"/></g>
<g><path style="opacity:1" fill="#4f8556" d="M 209.5,67.5 C 208.316,76.1276 207.316,84.7943 206.5,93.5C 206.835,98.1725 207.168,102.839 207.5,107.5C 206.232,105.095 205.565,102.428 205.5,99.5C 205.334,92.4921 205.5,85.4921 206,78.5C 206.498,74.5086 207.665,70.842 209.5,67.5 Z"/></g>
<g><path style="opacity:1" fill="#264e29" d="M 224.5,116.5 C 225.043,116.56 225.376,116.893 225.5,117.5C 220.348,118.814 215.348,118.814 210.5,117.5C 215.363,117.819 220.03,117.486 224.5,116.5 Z"/></g>
<g><path style="opacity:1" fill="#0e0f07" d="M 276.5,301.5 C 277.167,301.5 277.5,301.833 277.5,302.5C 273.511,308.155 268.844,313.155 263.5,317.5C 260.536,319.962 257.703,322.629 255,325.5C 253.846,329.104 253.013,332.771 252.5,336.5C 250.415,338.684 249.415,341.351 249.5,344.5C 244.048,365.742 246.048,386.409 255.5,406.5C 253.118,408.046 250.451,408.713 247.5,408.5C 247.5,408.167 247.5,407.833 247.5,407.5C 248.833,407.5 250.167,407.5 251.5,407.5C 249.001,398.017 246.334,388.683 243.5,379.5C 243.5,378.167 243.5,376.833 243.5,375.5C 242.876,368.518 242.376,361.518 242,354.5C 239.705,351.53 237.372,348.53 235,345.5C 234.322,343.402 234.489,341.402 235.5,339.5C 238.696,334.985 240.362,329.985 240.5,324.5C 241.543,318.35 242.21,312.016 242.5,305.5C 246.011,296.978 250.678,289.145 256.5,282C 240.227,283.386 226.727,290.22 216,302.5C 204.058,290.972 189.891,284.472 173.5,283C 181.777,289.923 187.61,298.423 191,308.5C 191.61,319.181 191.444,329.847 190.5,340.5C 189.314,343.938 188.647,347.604 188.5,351.5C 189.25,357.832 189.917,364.165 190.5,370.5C 192.735,370.795 194.735,370.461 196.5,369.5C 201.438,368.608 206.438,368.274 211.5,368.5C 212.88,370.719 212.546,372.719 210.5,374.5C 204.944,379.107 199.611,383.941 194.5,389C 196.608,393.182 198.608,397.349 200.5,401.5C 200.43,402.772 200.097,403.938 199.5,405C 197.613,405.78 195.946,405.613 194.5,404.5C 196.993,404.869 197.66,404.203 196.5,402.5C 197.097,402.265 197.43,401.765 197.5,401C 194.922,396.362 193.088,391.528 192,386.5C 197.5,381.667 203,376.833 208.5,372C 201.844,371.952 195.178,372.119 188.5,372.5C 188.808,370.076 188.474,367.743 187.5,365.5C 185.484,375.417 183.15,385.251 180.5,395C 180.57,395.765 180.903,396.265 181.5,396.5C 181.217,397.289 180.717,397.956 180,398.5C 179.667,397.167 179.333,395.833 179,394.5C 178.79,396.058 178.29,397.391 177.5,398.5C 184.107,371.843 180.941,346.51 168,322.5C 167.051,320.907 165.885,319.574 164.5,318.5C 161.611,311.095 156.944,304.928 150.5,300C 149.167,299.333 147.833,299.333 146.5,300C 141.393,302.536 136.06,304.369 130.5,305.5C 131.417,298.996 132.417,292.496 133.5,286C 133.361,284.699 132.695,283.866 131.5,283.5C 128.917,280.003 126.584,276.336 124.5,272.5C 125.906,272.027 126.573,271.027 126.5,269.5C 128.211,273.907 130.711,277.907 134,281.5C 134.645,278.441 135.478,275.441 136.5,272.5C 136.891,281.743 135.891,290.91 133.5,300C 133.833,300.833 134.167,301.667 134.5,302.5C 139.469,301.043 144.136,298.876 148.5,296C 151.777,294.857 155.11,294.023 158.5,293.5C 158.5,294.5 158.5,295.5 158.5,296.5C 156.897,296.312 155.563,296.812 154.5,298C 163.978,309.476 171.812,321.976 178,335.5C 181.066,347.293 182.732,359.293 183,371.5C 184.836,365.309 185.836,358.975 186,352.5C 187.277,338.179 187.944,323.846 188,309.5C 182.751,296.249 173.918,286.083 161.5,279C 156.585,274.756 152.419,269.923 149,264.5C 134.478,236.187 135.145,208.187 151,180.5C 165.228,158.283 185.562,147.283 212,147.5C 231.251,147.583 248.417,153.416 263.5,165C 285.914,186.891 292.747,213.057 284,243.5C 280.667,250.167 277.333,256.833 274,263.5C 263.943,277.225 254.276,291.225 245,305.5C 243.398,320.779 243.065,336.112 244,351.5C 246.3,342.935 248.8,334.435 251.5,326C 259.707,317.626 268.04,309.459 276.5,301.5 Z"/></g>
<g><path style="opacity:1" fill="#4ea158" d="M 237.5,180.5 C 234.335,184.498 230.668,187.998 226.5,191C 224.423,192.705 222.09,193.872 219.5,194.5C 214.915,195.408 212.582,193.575 212.5,189C 213.981,177.213 214.648,165.38 214.5,153.5C 220.221,153.369 225.888,153.869 231.5,155C 236.574,157.525 241.907,159.358 247.5,160.5C 246.102,164.532 244.769,168.532 243.5,172.5C 241.549,172.227 240.049,172.893 239,174.5C 238.282,173.549 237.449,173.383 236.5,174C 237.423,176.041 237.756,178.208 237.5,180.5 Z"/></g>
<g><path style="opacity:1" fill="#4fa159" d="M 192.5,153.5 C 198.167,153.5 203.833,153.5 209.5,153.5C 208.753,166.82 208.42,180.153 208.5,193.5C 210.308,193.491 211.975,193.991 213.5,195C 213.043,195.414 212.709,195.914 212.5,196.5C 210.282,197.057 207.949,197.057 205.5,196.5C 194.055,190.616 184.388,182.616 176.5,172.5C 175.66,169.826 175.16,167.159 175,164.5C 180.768,160.701 186.601,157.034 192.5,153.5 Z"/></g>
<g><path style="opacity:1" fill="#53945c" d="M 192.5,153.5 C 186.601,157.034 180.768,160.701 175,164.5C 175.16,167.159 175.66,169.826 176.5,172.5C 172.91,170.305 171.243,167.305 171.5,163.5C 177.607,158.28 184.607,154.946 192.5,153.5 Z"/></g>
<g><path style="opacity:1" fill="#52b773" d="M 334.5,178.5 C 335.252,180.1 336.252,181.6 337.5,183C 342.805,185.467 346.472,189.301 348.5,194.5C 353.334,194.49 356.001,196.824 356.5,201.5C 358.806,201.993 361.139,202.326 363.5,202.5C 374.239,212.237 385.572,221.237 397.5,229.5C 396.479,231.188 395.145,232.521 393.5,233.5C 385.846,239.321 379.013,245.987 373,253.5C 363.524,265.794 354.691,278.46 346.5,291.5C 345.624,291.369 344.957,291.702 344.5,292.5C 338.275,302.992 333.275,313.992 329.5,325.5C 329.065,328.157 328.065,330.491 326.5,332.5C 325.624,332.369 324.957,332.702 324.5,333.5C 320.082,344.171 316.749,355.171 314.5,366.5C 313.497,371.173 312.497,375.839 311.5,380.5C 310.897,383.308 309.897,385.974 308.5,388.5C 299.309,393.102 289.976,397.102 280.5,400.5C 275.951,401.463 271.617,402.796 267.5,404.5C 263.538,405.376 259.538,406.042 255.5,406.5C 246.048,386.409 244.048,365.742 249.5,344.5C 251.017,344.489 252.184,343.823 253,342.5C 255.791,337.572 257.458,332.239 258,326.5C 266.242,317.585 274.575,308.585 283,299.5C 283.483,298.552 283.649,297.552 283.5,296.5C 290.399,296.97 297.232,297.636 304,298.5C 304.791,292.704 304.291,287.037 302.5,281.5C 303.5,281.5 304.5,281.5 305.5,281.5C 305.635,278.493 304.635,275.993 302.5,274C 303.213,270.948 305.046,268.782 308,267.5C 311.199,262.435 313.866,257.102 316,251.5C 316.925,250.953 317.758,250.287 318.5,249.5C 319.283,244.553 319.783,239.553 320,234.5C 321,233.833 322,233.167 323,232.5C 323.667,223.167 323.667,213.833 323,204.5C 321.717,200.512 320.217,196.845 318.5,193.5C 318.5,192.833 318.167,192.5 317.5,192.5C 316.208,187.373 314.542,182.373 312.5,177.5C 311.237,173.729 311.404,170.063 313,166.5C 320.282,170.279 327.448,174.279 334.5,178.5 Z"/></g>
<g><path style="opacity:1" fill="#dcaa63" d="M 260.5,168.5 C 258.801,168.38 257.135,168.046 255.5,167.5C 252.861,169.473 250.527,171.806 248.5,174.5C 250.784,176.136 253.118,177.469 255.5,178.5C 254.19,180.148 252.857,181.814 251.5,183.5C 252.193,184.518 252.859,185.518 253.5,186.5C 252.504,186.586 251.671,186.252 251,185.5C 250.71,183.048 250.044,180.715 249,178.5C 247.214,180.099 245.047,180.933 242.5,181C 238.837,185.477 234.504,188.977 229.5,191.5C 237.911,182.917 246.244,174.084 254.5,165C 257.304,164.613 259.304,165.779 260.5,168.5 Z"/></g>
<g><path style="opacity:1" fill="#5a9c71" d="M 334.5,178.5 C 327.448,174.279 320.282,170.279 313,166.5C 311.404,170.063 311.237,173.729 312.5,177.5C 311.06,175.465 309.727,173.298 308.5,171C 309.635,168.559 311.135,166.392 313,164.5C 320.871,168.227 328.038,172.894 334.5,178.5 Z"/></g>
<g><path style="opacity:1" fill="#ebb366" d="M 181.5,181.5 C 179.906,181.08 178.406,180.414 177,179.5C 176.5,179.833 176,180.167 175.5,180.5C 176.5,181.333 177.5,182.167 178.5,183C 176.605,186.058 174.938,189.224 173.5,192.5C 172.448,192.351 171.448,192.517 170.5,193C 172.803,195.134 175.469,196.634 178.5,197.5C 179.197,200.573 181.03,202.573 184,203.5C 187.595,210.451 190.095,217.785 191.5,225.5C 187.868,210.532 178.868,200.198 164.5,194.5C 160.366,193.515 156.032,193.182 151.5,193.5C 151.993,191.194 152.326,188.861 152.5,186.5C 155.916,178.405 161.249,171.738 168.5,166.5C 172.595,171.678 176.928,176.678 181.5,181.5 Z"/></g>
<g><path style="opacity:1" fill="#5ca777" d="M 112.5,196.5 C 112.415,191.021 112.915,185.688 114,180.5C 111.971,183.596 109.138,185.262 105.5,185.5C 109.63,180.869 113.963,176.369 118.5,172C 119.332,171.312 119.998,171.479 120.5,172.5C 116.949,180.328 114.282,188.328 112.5,196.5 Z"/></g>
<g><path style="opacity:1" fill="#1f1610" d="M 164.5,179.5 C 170.679,178.858 173.846,181.525 174,187.5C 169.96,189.153 166.627,188.153 164,184.5C 163.36,182.735 163.527,181.068 164.5,179.5 Z"/></g>
<g><path style="opacity:1" fill="#509057" d="M 237.5,180.5 C 237.756,178.208 237.423,176.041 236.5,174C 237.449,173.383 238.282,173.549 239,174.5C 240.049,172.893 241.549,172.227 243.5,172.5C 244.769,168.532 246.102,164.532 247.5,160.5C 241.907,159.358 236.574,157.525 231.5,155C 225.888,153.869 220.221,153.369 214.5,153.5C 214.648,165.38 213.981,177.213 212.5,189C 212.582,193.575 214.915,195.408 219.5,194.5C 216.875,196.72 213.875,198.386 210.5,199.5C 208.308,199.243 206.641,198.243 205.5,196.5C 207.949,197.057 210.282,197.057 212.5,196.5C 212.709,195.914 213.043,195.414 213.5,195C 211.975,193.991 210.308,193.491 208.5,193.5C 208.42,180.153 208.753,166.82 209.5,153.5C 203.833,153.5 198.167,153.5 192.5,153.5C 198.574,151.752 204.907,151.085 211.5,151.5C 210.503,163.818 210.003,176.151 210,188.5C 211.772,176.23 212.606,163.897 212.5,151.5C 225.652,151.467 237.985,154.467 249.5,160.5C 249.833,161 250.167,161.5 250.5,162C 247.257,169.005 242.924,175.171 237.5,180.5 Z"/></g>
<g><path style="opacity:1" fill="#5aa975" d="M 334.5,178.5 C 345.128,185.317 354.795,193.317 363.5,202.5C 361.139,202.326 358.806,201.993 356.5,201.5C 356.001,196.824 353.334,194.49 348.5,194.5C 346.472,189.301 342.805,185.467 337.5,183C 336.252,181.6 335.252,180.1 334.5,178.5 Z"/></g>
<g><path style="opacity:1" fill="#b4935b" d="M 152.5,186.5 C 152.326,188.861 151.993,191.194 151.5,193.5C 156.032,193.182 160.366,193.515 164.5,194.5C 158.918,194.631 153.584,194.631 148.5,194.5C 148.896,191.279 150.229,188.612 152.5,186.5 Z"/></g>
<g><path style="opacity:1" fill="#f2b55e" d="M 260.5,168.5 C 260.709,169.922 261.209,171.255 262,172.5C 264.59,173.45 266.59,175.116 268,177.5C 270.968,182.48 273.968,187.48 277,192.5C 277.681,194.529 278.014,196.529 278,198.5C 276.67,197.418 275.17,196.751 273.5,196.5C 260.633,190.973 249.8,193.639 241,204.5C 236.984,210.335 234.151,216.669 232.5,223.5C 230.837,225.438 230.171,227.772 230.5,230.5C 229.883,230.611 229.383,230.944 229,231.5C 228.264,239.535 228.431,247.535 229.5,255.5C 230.5,255.5 231.5,255.5 232.5,255.5C 232.369,256.376 232.702,257.043 233.5,257.5C 235.889,258.18 238.222,259.014 240.5,260C 249.518,260.168 258.518,260.668 267.5,261.5C 266.248,263.001 265.248,264.668 264.5,266.5C 259.703,263.299 255.036,262.966 250.5,265.5C 246.879,266.736 246.545,268.736 249.5,271.5C 252.95,273.224 256.617,273.891 260.5,273.5C 260.5,274.5 260.5,275.5 260.5,276.5C 260.389,277.117 260.056,277.617 259.5,278C 251.543,278.757 243.876,280.59 236.5,283.5C 231.268,283.617 226.935,285.617 223.5,289.5C 222.325,288.145 221.325,288.312 220.5,290C 220.833,290.333 221.167,290.667 221.5,291C 220.207,291.49 218.873,291.657 217.5,291.5C 217.821,294.88 216.821,295.713 214.5,294C 214.957,293.586 215.291,293.086 215.5,292.5C 211.723,291.601 208.056,290.601 204.5,289.5C 202.847,289.34 201.514,288.674 200.5,287.5C 199.972,286.279 199.305,285.113 198.5,284C 193.739,282.642 189.072,280.975 184.5,279C 178.305,278.986 172.305,277.986 166.5,276C 166.957,275.586 167.291,275.086 167.5,274.5C 170.785,273.676 174.118,273.176 177.5,273C 178.333,271.5 179.5,270.333 181,269.5C 181.334,267.153 181.167,264.819 180.5,262.5C 176.725,262.072 173.225,262.739 170,264.5C 169.228,264.355 168.561,264.022 168,263.5C 167.506,265.134 167.34,266.801 167.5,268.5C 166.835,270.369 166.169,272.369 165.5,274.5C 164.727,272.187 164.06,269.854 163.5,267.5C 160.653,266.038 157.653,265.038 154.5,264.5C 154.082,261.91 153.082,259.577 151.5,257.5C 159.266,257.661 166.933,257.328 174.5,256.5C 175.833,256.5 177.167,256.5 178.5,256.5C 183.789,256.881 188.789,255.881 193.5,253.5C 195.854,255.246 196.854,257.579 196.5,260.5C 198.288,260.215 199.955,260.548 201.5,261.5C 201.333,261.833 201.167,262.167 201,262.5C 197.718,263.655 194.552,264.321 191.5,264.5C 188.515,268.385 188.849,271.885 192.5,275C 194.066,275.765 195.399,275.598 196.5,274.5C 199,273.11 201.333,273.277 203.5,275C 210.594,275.431 217.594,276.097 224.5,277C 225.5,276.5 226.5,276 227.5,275.5C 228.484,272.572 228.817,269.572 228.5,266.5C 229.773,265.923 229.773,265.257 228.5,264.5C 224.137,266.506 219.804,268.506 215.5,270.5C 210.694,270.604 206.028,269.937 201.5,268.5C 203.338,265.13 204.338,261.463 204.5,257.5C 200.838,258.363 198.672,257.03 198,253.5C 197.097,252.299 195.931,251.465 194.5,251C 195.122,249.431 195.456,247.764 195.5,246C 194.94,240.839 194.44,235.673 194,230.5C 193.95,228.256 193.117,226.589 191.5,225.5C 190.095,217.785 187.595,210.451 184,203.5C 181.03,202.573 179.197,200.573 178.5,197.5C 175.469,196.634 172.803,195.134 170.5,193C 171.448,192.517 172.448,192.351 173.5,192.5C 174.938,189.224 176.605,186.058 178.5,183C 177.5,182.167 176.5,181.333 175.5,180.5C 176,180.167 176.5,179.833 177,179.5C 178.406,180.414 179.906,181.08 181.5,181.5C 190.642,189.134 200.475,195.801 211,201.5C 217.569,198.729 223.736,195.396 229.5,191.5C 234.504,188.977 238.837,185.477 242.5,181C 245.047,180.933 247.214,180.099 249,178.5C 250.044,180.715 250.71,183.048 251,185.5C 251.671,186.252 252.504,186.586 253.5,186.5C 257.901,186.469 261.235,184.635 263.5,181C 261.751,177.478 259.085,176.645 255.5,178.5C 253.118,177.469 250.784,176.136 248.5,174.5C 250.527,171.806 252.861,169.473 255.5,167.5C 257.135,168.046 258.801,168.38 260.5,168.5 Z"/></g>
<g><path style="opacity:1" fill="#1f170f" d="M 253.5,186.5 C 252.859,185.518 252.193,184.518 251.5,183.5C 252.857,181.814 254.19,180.148 255.5,178.5C 259.085,176.645 261.751,177.478 263.5,181C 261.235,184.635 257.901,186.469 253.5,186.5 Z"/></g>
<g><path style="opacity:1" fill="#f4f4f4" d="M 164.5,253.5 C 150.992,256.139 143.826,250.472 143,236.5C 141.876,224.304 142.876,212.304 146,200.5C 146.72,198.944 147.887,197.944 149.5,197.5C 158.095,194.242 166.095,195.409 173.5,201C 187.626,214.115 193.126,230.282 190,249.5C 185.463,252.172 180.63,253.672 175.5,254C 184.36,243.609 186.86,231.776 183,218.5C 181.567,212.121 178.067,207.287 172.5,204C 164.982,203.486 160.149,206.986 158,214.5C 154.401,224.971 154.734,235.304 159,245.5C 160.116,248.756 161.949,251.422 164.5,253.5 Z"/></g>
<g><path style="opacity:1" fill="#f1f1f0" d="M 256.5,195.5 C 277.994,196.781 286.827,208.114 283,229.5C 281.201,237.396 278.701,245.063 275.5,252.5C 274.335,253.584 273.002,254.417 271.5,255C 258.592,258.771 245.926,258.271 233.5,253.5C 229.996,236.184 233.162,220.184 243,205.5C 246.802,201.037 251.302,197.703 256.5,195.5 Z"/></g>
<g><path style="opacity:1" fill="#52b773" d="M 112.5,196.5 C 112.5,196.833 112.5,197.167 112.5,197.5C 111.883,197.611 111.383,197.944 111,198.5C 110.324,215.851 110.658,233.184 112,250.5C 112.892,253.952 114.558,256.952 117,259.5C 117.333,261.5 117.667,263.5 118,265.5C 118.671,266.252 119.504,266.586 120.5,266.5C 122.316,268.118 123.649,270.118 124.5,272.5C 126.584,276.336 128.917,280.003 131.5,283.5C 131.597,289.126 130.931,294.626 129.5,300C 129.506,302.033 129.839,303.866 130.5,305.5C 131.097,306.139 131.93,306.472 133,306.5C 138.502,304.668 144.002,303.668 149.5,303.5C 151.211,305.201 153.211,306.534 155.5,307.5C 156.955,309.22 157.788,311.22 158,313.5C 160.184,315.288 162.351,316.954 164.5,318.5C 164.224,321.852 165.391,324.519 168,326.5C 171.959,335.577 174.959,344.91 177,354.5C 177.547,361.83 178.047,369.163 178.5,376.5C 176.93,385.397 175.93,394.397 175.5,403.5C 166.561,401.262 157.561,399.262 148.5,397.5C 144.211,397.204 141.211,395.204 139.5,391.5C 131.767,376.1 121.1,363.1 107.5,352.5C 106.341,350.75 104.674,349.75 102.5,349.5C 102.167,347.5 101.833,345.5 101.5,343.5C 99.6047,335.027 97.1047,326.694 94,318.5C 91.0013,312.815 88.668,306.815 87,300.5C 86.2597,298.681 85.0931,297.348 83.5,296.5C 80.3491,286.856 77.1824,277.189 74,267.5C 68.4516,260.136 66.9516,252.136 69.5,243.5C 71.5816,243.376 73.0816,242.376 74,240.5C 74.3333,240.833 74.6667,241.167 75,241.5C 79.3499,231.797 84.0165,222.13 89,212.5C 90.3333,212.5 91.6667,212.5 93,212.5C 93.3333,211.167 93.6667,209.833 94,208.5C 94.6667,207.167 95.3333,207.167 96,208.5C 96.0072,204.989 97.5072,201.822 100.5,199C 100.192,194.972 101.692,191.472 105,188.5C 105.483,187.552 105.649,186.552 105.5,185.5C 109.138,185.262 111.971,183.596 114,180.5C 112.915,185.688 112.415,191.021 112.5,196.5 Z"/></g>
<g><path style="opacity:1" fill="#cba46c" d="M 260.5,168.5 C 268.31,174.156 274.143,181.489 278,190.5C 280.116,194.628 281.116,198.961 281,203.5C 278.604,200.933 276.104,198.6 273.5,196.5C 275.17,196.751 276.67,197.418 278,198.5C 278.014,196.529 277.681,194.529 277,192.5C 273.968,187.48 270.968,182.48 268,177.5C 266.59,175.116 264.59,173.45 262,172.5C 261.209,171.255 260.709,169.922 260.5,168.5 Z"/></g>
<g><path style="opacity:1" fill="#113921" d="M 317.5,192.5 C 318.167,192.5 318.5,192.833 318.5,193.5C 319.219,195.764 319.552,198.097 319.5,200.5C 318.232,198.095 317.565,195.428 317.5,192.5 Z"/></g>
<g><path style="opacity:1" fill="#9d9d9d" d="M 26.5,186.5 C 26.624,192.069 25.9573,197.402 24.5,202.5C 24.527,196.949 25.1937,191.616 26.5,186.5 Z"/></g>
<g><path style="opacity:1" fill="#56aa73" d="M 105.5,185.5 C 105.649,186.552 105.483,187.552 105,188.5C 101.692,191.472 100.192,194.972 100.5,199C 97.5072,201.822 96.0072,204.989 96,208.5C 95.3333,207.167 94.6667,207.167 94,208.5C 93.6667,209.833 93.3333,211.167 93,212.5C 91.6667,212.5 90.3333,212.5 89,212.5C 84.0165,222.13 79.3499,231.797 75,241.5C 74.6667,241.167 74.3333,240.833 74,240.5C 73.0816,242.376 71.5816,243.376 69.5,243.5C 75.9752,230.173 83.1419,217.173 91,204.5C 95.3134,197.697 100.147,191.364 105.5,185.5 Z"/></g>
<g><path style="opacity:1" fill="#1f1912" d="M 249.5,202.5 C 257.111,201.93 262.278,205.264 265,212.5C 268.051,225.811 266.384,238.478 260,250.5C 249.717,259.89 242.384,257.89 238,244.5C 233.257,227.926 237.09,213.926 249.5,202.5 Z"/></g>
<g><path style="opacity:1" fill="#dac070" d="M 262.5,212.5 C 260.747,211.075 259.08,209.409 257.5,207.5C 254.834,206.262 252.168,206.262 249.5,207.5C 247.812,209.854 245.812,211.854 243.5,213.5C 245.882,205.642 250.882,203.142 258.5,206C 260.734,207.638 262.067,209.805 262.5,212.5 Z"/></g>
<g><path style="opacity:1" fill="#fed85d" d="M 262.5,212.5 C 262.505,216.534 262.838,220.534 263.5,224.5C 261.167,224.5 258.833,224.5 256.5,224.5C 255.046,220.345 254.046,216.012 253.5,211.5C 251.833,211.5 250.167,211.5 248.5,211.5C 248.5,212.5 248.5,213.5 248.5,214.5C 248.5,214.833 248.5,215.167 248.5,215.5C 247.069,215.881 246.236,216.881 246,218.5C 245.503,221.146 245.336,223.813 245.5,226.5C 243.833,226.5 242.167,226.5 240.5,226.5C 241.204,222.094 242.204,217.76 243.5,213.5C 245.812,211.854 247.812,209.854 249.5,207.5C 252.168,206.262 254.834,206.262 257.5,207.5C 259.08,209.409 260.747,211.075 262.5,212.5 Z"/></g>
<g><path style="opacity:1" fill="#1d1813" d="M 148.5,194.5 C 153.584,194.631 158.918,194.631 164.5,194.5C 178.868,200.198 187.868,210.532 191.5,225.5C 192.455,233.814 192.622,242.148 192,250.5C 187.689,253.184 183.189,255.184 178.5,256.5C 177.167,256.5 175.833,256.5 174.5,256.5C 174.167,256.5 173.833,256.5 173.5,256.5C 172.198,254.972 170.531,253.972 168.5,253.5C 175.374,252.627 179.374,248.627 180.5,241.5C 182.006,238.644 182.672,235.477 182.5,232C 182.496,229.639 182.163,227.473 181.5,225.5C 182,219.668 180.334,214.668 176.5,210.5C 174.641,206.074 171.308,204.574 166.5,206C 164.536,207.451 163.203,209.284 162.5,211.5C 160.11,214.689 158.777,218.356 158.5,222.5C 157.167,226.833 157.167,231.167 158.5,235.5C 158.917,241.995 161.25,247.661 165.5,252.5C 164.833,252.5 164.5,252.833 164.5,253.5C 161.949,251.422 160.116,248.756 159,245.5C 154.734,235.304 154.401,224.971 158,214.5C 160.149,206.986 164.982,203.486 172.5,204C 178.067,207.287 181.567,212.121 183,218.5C 186.86,231.776 184.36,243.609 175.5,254C 180.63,253.672 185.463,252.172 190,249.5C 193.126,230.282 187.626,214.115 173.5,201C 166.095,195.409 158.095,194.242 149.5,197.5C 148.909,196.849 148.243,196.182 147.5,195.5C 147.624,194.893 147.957,194.56 148.5,194.5 Z"/></g>
<g><path style="opacity:1" fill="#e9e8e7" d="M 172.5,218.5 C 172.334,222.514 172.501,226.514 173,230.5C 174.889,231.097 176.722,231.431 178.5,231.5C 176.615,233.881 174.615,236.047 172.5,238C 172.93,239.434 173.764,240.601 175,241.5C 175.667,242.833 175.667,244.167 175,245.5C 172.722,243.421 170.889,241.087 169.5,238.5C 167.515,240.457 166.015,242.79 165,245.5C 164.149,241.958 164.649,238.625 166.5,235.5C 166.043,234.702 165.376,234.369 164.5,234.5C 163.524,233.185 162.524,231.852 161.5,230.5C 163.743,229.526 166.076,229.192 168.5,229.5C 168.33,225.355 168.997,221.355 170.5,217.5C 171.183,217.863 171.85,218.196 172.5,218.5 Z"/></g>
<g><path style="opacity:1" fill="#fed85d" d="M 176.5,210.5 C 176.264,213.226 177.097,215.559 179,217.5C 179.498,220.482 179.665,223.482 179.5,226.5C 178.5,226.5 177.5,226.5 176.5,226.5C 176.354,222.481 176.021,218.481 175.5,214.5C 172.941,214.198 170.607,214.532 168.5,215.5C 167.883,215.611 167.383,215.944 167,216.5C 166.39,219.827 165.89,223.161 165.5,226.5C 163.833,226.5 162.167,226.5 160.5,226.5C 160.294,221.346 160.961,216.346 162.5,211.5C 166.957,206.619 171.624,206.286 176.5,210.5 Z"/></g>
<g><path style="opacity:1" fill="#d3bd71" d="M 176.5,210.5 C 171.624,206.286 166.957,206.619 162.5,211.5C 163.203,209.284 164.536,207.451 166.5,206C 171.308,204.574 174.641,206.074 176.5,210.5 Z"/></g>
<g><path style="opacity:1" fill="#efd276" d="M 162.5,211.5 C 160.961,216.346 160.294,221.346 160.5,226.5C 162.167,226.5 163.833,226.5 165.5,226.5C 165.89,223.161 166.39,219.827 167,216.5C 167.383,215.944 167.883,215.611 168.5,215.5C 168.156,219.228 167.49,222.895 166.5,226.5C 163.973,227.214 161.473,227.88 159,228.5C 158.505,226.527 158.338,224.527 158.5,222.5C 158.777,218.356 160.11,214.689 162.5,211.5 Z"/></g>
<g><path style="opacity:1" fill="#e4c870" d="M 262.5,212.5 C 264.984,221.638 265.151,230.971 263,240.5C 262.085,241.328 261.419,242.328 261,243.5C 260.131,240.67 258.964,238.003 257.5,235.5C 260.471,233.203 262.138,230.203 262.5,226.5C 260.08,226.292 257.747,226.626 255.5,227.5C 254.015,222.931 252.848,218.264 252,213.5C 251.586,213.043 251.086,212.709 250.5,212.5C 249.818,213.243 249.151,213.909 248.5,214.5C 248.5,213.5 248.5,212.5 248.5,211.5C 250.167,211.5 251.833,211.5 253.5,211.5C 254.046,216.012 255.046,220.345 256.5,224.5C 258.833,224.5 261.167,224.5 263.5,224.5C 262.838,220.534 262.505,216.534 262.5,212.5 Z"/></g>
<g><path style="opacity:1" fill="#76642e" d="M 247.5,220.5 C 247.5,223.167 247.5,225.833 247.5,228.5C 246.209,228.737 245.209,228.404 244.5,227.5C 246.083,225.492 247.083,223.159 247.5,220.5 Z"/></g>
<g><path style="opacity:1" fill="#eccd6c" d="M 176.5,210.5 C 180.334,214.668 182,219.668 181.5,225.5C 181.768,227.099 181.434,228.432 180.5,229.5C 178.983,228.265 177.316,228.265 175.5,229.5C 174.833,225.687 174.166,222.021 173.5,218.5C 172.656,216.241 170.989,215.241 168.5,215.5C 170.607,214.532 172.941,214.198 175.5,214.5C 176.021,218.481 176.354,222.481 176.5,226.5C 177.5,226.5 178.5,226.5 179.5,226.5C 179.665,223.482 179.498,220.482 179,217.5C 177.097,215.559 176.264,213.226 176.5,210.5 Z"/></g>
<g><path style="opacity:1" fill="#87663a" d="M 232.5,223.5 C 232.279,226.067 231.612,228.401 230.5,230.5C 230.171,227.772 230.837,225.438 232.5,223.5 Z"/></g>
<g><path style="opacity:1" fill="#dcc272" d="M 243.5,213.5 C 242.204,217.76 241.204,222.094 240.5,226.5C 242.167,226.5 243.833,226.5 245.5,226.5C 245.336,223.813 245.503,221.146 246,218.5C 246.236,216.881 247.069,215.881 248.5,215.5C 247.699,217.042 247.366,218.708 247.5,220.5C 247.083,223.159 246.083,225.492 244.5,227.5C 242.052,227.01 240.385,227.843 239.5,230C 241.042,232.442 243.042,234.442 245.5,236C 245.43,236.765 245.097,237.265 244.5,237.5C 243.7,235.259 242.034,234.259 239.5,234.5C 239.5,236.167 239.5,237.833 239.5,239.5C 238.35,234.684 238.184,229.684 239,224.5C 239.644,220.381 241.144,216.715 243.5,213.5 Z"/></g>
<g><path style="opacity:1" fill="#5ba673" d="M 112.5,197.5 C 110.595,214.976 111.428,232.309 115,249.5C 117.325,254.977 119.159,260.644 120.5,266.5C 119.504,266.586 118.671,266.252 118,265.5C 117.667,263.5 117.333,261.5 117,259.5C 114.558,256.952 112.892,253.952 112,250.5C 110.658,233.184 110.324,215.851 111,198.5C 111.383,197.944 111.883,197.611 112.5,197.5 Z"/></g>
<g><path style="opacity:1" fill="#362b19" d="M 168.5,215.5 C 170.989,215.241 172.656,216.241 173.5,218.5C 173.167,218.5 172.833,218.5 172.5,218.5C 171.85,218.196 171.183,217.863 170.5,217.5C 168.997,221.355 168.33,225.355 168.5,229.5C 166.076,229.192 163.743,229.526 161.5,230.5C 162.524,231.852 163.524,233.185 164.5,234.5C 163.833,234.5 163.5,234.833 163.5,235.5C 161.871,234.375 160.371,233.041 159,231.5C 158.51,232.793 158.343,234.127 158.5,235.5C 157.167,231.167 157.167,226.833 158.5,222.5C 158.338,224.527 158.505,226.527 159,228.5C 161.473,227.88 163.973,227.214 166.5,226.5C 167.49,222.895 168.156,219.228 168.5,215.5 Z"/></g>
<g><path style="opacity:1" fill="#eaeaea" d="M 249.5,216.5 C 250.649,216.791 251.316,217.624 251.5,219C 252.234,222.501 252.9,226.001 253.5,229.5C 255.599,228.769 257.599,228.769 259.5,229.5C 257.833,231.5 256.167,233.5 254.5,235.5C 257.572,237.944 258.572,240.944 257.5,244.5C 255.167,242.833 253.167,240.833 251.5,238.5C 244.643,246.521 243.643,245.521 248.5,235.5C 246.167,233.667 243.833,231.833 241.5,230C 243.81,229.503 246.143,229.337 248.5,229.5C 248.739,225.158 249.073,220.824 249.5,216.5 Z"/></g>
<g><path style="opacity:1" fill="#d6ab6c" d="M 230.5,230.5 C 228.856,239.052 229.522,247.385 232.5,255.5C 231.5,255.5 230.5,255.5 229.5,255.5C 228.431,247.535 228.264,239.535 229,231.5C 229.383,230.944 229.883,230.611 230.5,230.5 Z"/></g>
<g><path style="opacity:1" fill="#4d794a" d="M 395.5,296.5 C 394.504,296.414 393.671,296.748 393,297.5C 392.163,299.844 390.829,301.844 389,303.5C 387.044,303.216 384.877,303.216 382.5,303.5C 383.154,307.298 384.154,310.964 385.5,314.5C 384.178,314.33 383.011,314.663 382,315.5C 381.798,317.256 381.298,318.922 380.5,320.5C 377.678,324.128 374.845,327.795 372,331.5C 370.991,333.025 370.491,334.692 370.5,336.5C 369.5,336.5 368.5,336.5 367.5,336.5C 367.5,337.833 367.5,339.167 367.5,340.5C 358.669,351.497 348.669,361.331 337.5,370C 336.563,370.692 335.897,370.525 335.5,369.5C 331.021,361.564 328.021,353.064 326.5,344C 338.224,309.053 356.057,277.553 380,249.5C 384.729,244.603 389.562,239.936 394.5,235.5C 396.895,233.93 399.395,232.597 402,231.5C 404.975,232.991 408.141,233.991 411.5,234.5C 410.212,256.244 404.879,276.911 395.5,296.5 Z"/></g>
<g><path style="opacity:1" fill="#c6ac62" d="M 181.5,225.5 C 182.163,227.473 182.496,229.639 182.5,232C 182.672,235.477 182.006,238.644 180.5,241.5C 180.663,239.143 180.497,236.81 180,234.5C 179.184,235.823 178.017,236.489 176.5,236.5C 178.705,234.637 180.039,232.303 180.5,229.5C 181.434,228.432 181.768,227.099 181.5,225.5 Z"/></g>
<g><path style="opacity:1" fill="#201911" d="M 172.5,218.5 C 172.833,218.5 173.167,218.5 173.5,218.5C 174.166,222.021 174.833,225.687 175.5,229.5C 177.316,228.265 178.983,228.265 180.5,229.5C 180.039,232.303 178.705,234.637 176.5,236.5C 176.598,239.549 176.598,242.715 176.5,246C 173.208,246.896 170.875,245.729 169.5,242.5C 168.162,244.337 166.662,246.003 165,247.5C 163.053,246.956 162.22,245.623 162.5,243.5C 163.095,240.86 163.428,238.193 163.5,235.5C 163.5,234.833 163.833,234.5 164.5,234.5C 165.376,234.369 166.043,234.702 166.5,235.5C 164.649,238.625 164.149,241.958 165,245.5C 166.015,242.79 167.515,240.457 169.5,238.5C 170.889,241.087 172.722,243.421 175,245.5C 175.667,244.167 175.667,242.833 175,241.5C 173.764,240.601 172.93,239.434 172.5,238C 174.615,236.047 176.615,233.881 178.5,231.5C 176.722,231.431 174.889,231.097 173,230.5C 172.501,226.514 172.334,222.514 172.5,218.5 Z"/></g>
<g><path style="opacity:1" fill="#eacd72" d="M 163.5,235.5 C 163.428,238.193 163.095,240.86 162.5,243.5C 162.22,245.623 163.053,246.956 165,247.5C 166.662,246.003 168.162,244.337 169.5,242.5C 170.875,245.729 173.208,246.896 176.5,246C 176.598,242.715 176.598,239.549 176.5,236.5C 178.017,236.489 179.184,235.823 180,234.5C 180.497,236.81 180.663,239.143 180.5,241.5C 179.374,248.627 175.374,252.627 168.5,253.5C 167.391,253.443 166.391,253.11 165.5,252.5C 161.25,247.661 158.917,241.995 158.5,235.5C 158.343,234.127 158.51,232.793 159,231.5C 160.371,233.041 161.871,234.375 163.5,235.5 Z"/></g>
<g><path style="opacity:1" fill="#edcd6a" d="M 244.5,237.5 C 243.427,240.721 243.427,243.888 244.5,247C 247.46,246.394 249.627,244.561 251,241.5C 253.349,244.017 255.849,246.35 258.5,248.5C 255.239,254.682 250.572,256.015 244.5,252.5C 240.876,248.918 239.209,244.585 239.5,239.5C 239.5,237.833 239.5,236.167 239.5,234.5C 242.034,234.259 243.7,235.259 244.5,237.5 Z"/></g>
<g><path style="opacity:1" fill="#e2ad61" d="M 191.5,225.5 C 193.117,226.589 193.95,228.256 194,230.5C 194.44,235.673 194.94,240.839 195.5,246C 195.456,247.764 195.122,249.431 194.5,251C 195.931,251.465 197.097,252.299 198,253.5C 198.672,257.03 200.838,258.363 204.5,257.5C 204.338,261.463 203.338,265.13 201.5,268.5C 206.028,269.937 210.694,270.604 215.5,270.5C 212.863,272.427 209.863,272.927 206.5,272C 201.794,270.265 197.127,268.431 192.5,266.5C 190.35,271.096 191.683,273.763 196.5,274.5C 195.399,275.598 194.066,275.765 192.5,275C 188.849,271.885 188.515,268.385 191.5,264.5C 194.552,264.321 197.718,263.655 201,262.5C 201.167,262.167 201.333,261.833 201.5,261.5C 199.955,260.548 198.288,260.215 196.5,260.5C 196.854,257.579 195.854,255.246 193.5,253.5C 188.789,255.881 183.789,256.881 178.5,256.5C 183.189,255.184 187.689,253.184 192,250.5C 192.622,242.148 192.455,233.814 191.5,225.5 Z"/></g>
<g><path style="opacity:1" fill="#c59d64" d="M 173.5,256.5 C 173.833,256.5 174.167,256.5 174.5,256.5C 166.933,257.328 159.266,257.661 151.5,257.5C 153.082,259.577 154.082,261.91 154.5,264.5C 152.442,262.073 150.609,259.407 149,256.5C 148.251,255.365 148.417,254.365 149.5,253.5C 157.262,256.154 165.262,257.154 173.5,256.5 Z"/></g>
<g><path style="opacity:1" fill="#91d5a8" d="M 63.5,254.5 C 72.149,277.439 80.8157,300.439 89.5,323.5C 88.7386,327.356 89.5719,331.023 92,334.5C 92.9929,338.442 93.6596,342.442 94,346.5C 96.4126,350.268 98.4126,354.268 100,358.5C 100.096,361.451 100.929,364.118 102.5,366.5C 102.167,366.833 101.833,367.167 101.5,367.5C 99.2174,364.129 96.5507,361.295 93.5,359C 92.1667,358.667 90.8333,358.333 89.5,358C 90.8333,357.333 90.8333,356.667 89.5,356C 85.3465,355.272 82.3465,353.105 80.5,349.5C 77.316,348.784 75.816,346.784 76,343.5C 73.4923,340.143 70.3256,337.81 66.5,336.5C 55.9701,324.789 47.9701,311.455 42.5,296.5C 41.6226,292.65 40.2892,288.983 38.5,285.5C 37.5078,281.217 37.1744,276.884 37.5,272.5C 40.5465,272.817 42.2132,271.484 42.5,268.5C 48.4672,264.159 54.1339,259.325 59.5,254C 61.278,251.975 62.6113,252.141 63.5,254.5 Z"/></g>
<g><path style="opacity:1" fill="#cbb8a8" d="M 435.5,232.5 C 435.5,245.5 435.5,258.5 435.5,271.5C 433.5,271.5 431.5,271.5 429.5,271.5C 429.5,270.5 429.5,269.5 429.5,268.5C 431.795,256.412 433.795,244.412 435.5,232.5 Z"/></g>
<g><path style="opacity:1" fill="#dcab68" d="M 232.5,255.5 C 235.688,256.967 239.021,258.134 242.5,259C 252.598,259.752 262.598,259.419 272.5,258C 270.029,262.949 267.029,267.449 263.5,271.5C 263.548,268.708 262.215,266.875 259.5,266C 256.518,265.502 253.518,265.335 250.5,265.5C 255.036,262.966 259.703,263.299 264.5,266.5C 265.248,264.668 266.248,263.001 267.5,261.5C 258.518,260.668 249.518,260.168 240.5,260C 238.222,259.014 235.889,258.18 233.5,257.5C 232.702,257.043 232.369,256.376 232.5,255.5 Z"/></g>
<g><path style="opacity:1" fill="#deac64" d="M 200.5,287.5 C 190.261,283.144 179.594,280.311 168.5,279C 162.263,275.598 157.596,270.764 154.5,264.5C 157.653,265.038 160.653,266.038 163.5,267.5C 164.06,269.854 164.727,272.187 165.5,274.5C 166.169,272.369 166.835,270.369 167.5,268.5C 167.34,266.801 167.506,265.134 168,263.5C 168.561,264.022 169.228,264.355 170,264.5C 173.225,262.739 176.725,262.072 180.5,262.5C 181.167,264.819 181.334,267.153 181,269.5C 179.5,270.333 178.333,271.5 177.5,273C 174.118,273.176 170.785,273.676 167.5,274.5C 167.291,275.086 166.957,275.586 166.5,276C 172.305,277.986 178.305,278.986 184.5,279C 189.072,280.975 193.739,282.642 198.5,284C 199.305,285.113 199.972,286.279 200.5,287.5 Z"/></g>
<g><path style="opacity:1" fill="#1a120e" d="M 250.5,265.5 C 253.518,265.335 256.518,265.502 259.5,266C 262.215,266.875 263.548,268.708 263.5,271.5C 259.49,272.836 255.49,272.67 251.5,271C 249.365,269.444 249.032,267.611 250.5,265.5 Z"/></g>
<g><path style="opacity:1" fill="#09160a" d="M 64.5,251.5 C 71.0397,266.464 77.373,281.464 83.5,296.5C 89.2703,312.354 95.2703,328.02 101.5,343.5C 101.833,345.5 102.167,347.5 102.5,349.5C 100.896,350.287 100.229,351.62 100.5,353.5C 96.8342,344.128 93.6676,334.461 91,324.5C 90.6174,323.944 90.1174,323.611 89.5,323.5C 80.8157,300.439 72.149,277.439 63.5,254.5C 64.404,253.791 64.7373,252.791 64.5,251.5 Z"/></g>
<g><path style="opacity:1" fill="#21170d" d="M 167.5,268.5 C 170.29,267.021 173.123,265.688 176,264.5C 179.935,265.311 180.435,267.144 177.5,270C 175.162,270.837 172.828,271.67 170.5,272.5C 168.085,272.281 167.085,270.948 167.5,268.5 Z"/></g>
<g><path style="opacity:1" fill="#c9a26d" d="M 250.5,265.5 C 249.032,267.611 249.365,269.444 251.5,271C 255.49,272.67 259.49,272.836 263.5,271.5C 262.89,273.434 261.89,275.101 260.5,276.5C 260.5,275.5 260.5,274.5 260.5,273.5C 256.617,273.891 252.95,273.224 249.5,271.5C 246.545,268.736 246.879,266.736 250.5,265.5 Z"/></g>
<g><path style="opacity:1" fill="#26150c" d="M 228.5,266.5 C 226.838,268.912 225.838,271.746 225.5,275C 224.167,275.667 222.833,275.667 221.5,275C 220.315,273.647 218.981,272.48 217.5,271.5C 211.757,275.412 206.091,275.412 200.5,271.5C 198.583,271.754 197.249,272.754 196.5,274.5C 191.683,273.763 190.35,271.096 192.5,266.5C 197.127,268.431 201.794,270.265 206.5,272C 209.863,272.927 212.863,272.427 215.5,270.5C 219.804,268.506 224.137,266.506 228.5,264.5C 229.773,265.257 229.773,265.923 228.5,266.5 Z"/></g>
<g><path style="opacity:1" fill="#e5e6e7" d="M 221.5,269.5 C 222.5,269.5 223.5,269.5 224.5,269.5C 224.5,270.833 224.5,272.167 224.5,273.5C 221.046,273.733 220.046,272.4 221.5,269.5 Z"/></g>
<g><path style="opacity:1" fill="#f3f4f5" d="M 193.5,269.5 C 196.548,269.494 197.048,270.494 195,272.5C 193.961,271.756 193.461,270.756 193.5,269.5 Z"/></g>
<g><path style="opacity:1" fill="#91c2a2" d="M 42.5,268.5 C 42.2132,271.484 40.5465,272.817 37.5,272.5C 37.1744,276.884 37.5078,281.217 38.5,285.5C 40.2892,288.983 41.6226,292.65 42.5,296.5C 38.0211,289.419 34.6878,281.752 32.5,273.5C 35.5766,271.295 38.9099,269.628 42.5,268.5 Z"/></g>
<g><path style="opacity:1" fill="#d7a969" d="M 228.5,266.5 C 228.817,269.572 228.484,272.572 227.5,275.5C 226.5,276 225.5,276.5 224.5,277C 217.594,276.097 210.594,275.431 203.5,275C 201.333,273.277 199,273.11 196.5,274.5C 197.249,272.754 198.583,271.754 200.5,271.5C 206.091,275.412 211.757,275.412 217.5,271.5C 218.981,272.48 220.315,273.647 221.5,275C 222.833,275.667 224.167,275.667 225.5,275C 225.838,271.746 226.838,268.912 228.5,266.5 Z"/></g>
<g><path style="opacity:1" fill="#737899" d="M 429.5,268.5 C 429.5,269.5 429.5,270.5 429.5,271.5C 431.5,271.5 433.5,271.5 435.5,271.5C 435.5,273.5 435.5,275.5 435.5,277.5C 432.248,277.29 429.248,277.956 426.5,279.5C 426.742,275.521 427.742,271.854 429.5,268.5 Z"/></g>
<g><path style="opacity:1" fill="#549d6d" d="M 69.5,243.5 C 66.9516,252.136 68.4516,260.136 74,267.5C 77.1824,277.189 80.3491,286.856 83.5,296.5C 77.373,281.464 71.0397,266.464 64.5,251.5C 65.1514,248.197 66.818,245.53 69.5,243.5 Z"/></g>
<g><path style="opacity:1" fill="#5dab66" d="M 242.5,305.5 C 240.823,311.584 240.156,317.918 240.5,324.5C 240.362,329.985 238.696,334.985 235.5,339.5C 231.843,341.874 231.509,344.874 234.5,348.5C 236.167,349.833 237.833,351.167 239.5,352.5C 239.936,360.47 241.269,368.136 243.5,375.5C 243.5,376.833 243.5,378.167 243.5,379.5C 243.334,384.179 243.501,388.845 244,393.5C 246.593,396.622 248.427,400.122 249.5,404C 249.138,405.434 248.472,406.601 247.5,407.5C 231.829,408.521 216.162,408.521 200.5,407.5C 201.087,405.727 201.42,403.894 201.5,402C 200.172,397.541 199.339,393.041 199,388.5C 203.788,384.512 208.288,380.179 212.5,375.5C 212.833,374.333 213.167,373.167 213.5,372C 213.392,370.319 212.725,369.152 211.5,368.5C 206.438,368.274 201.438,368.608 196.5,369.5C 194.833,369.5 193.167,369.5 191.5,369.5C 190.675,359.857 190.342,350.191 190.5,340.5C 191.444,329.847 191.61,319.181 191,308.5C 187.61,298.423 181.777,289.923 173.5,283C 189.891,284.472 204.058,290.972 216,302.5C 226.727,290.22 240.227,283.386 256.5,282C 250.678,289.145 246.011,296.978 242.5,305.5 Z"/></g>
<g><path style="opacity:1" fill="#4558a8" d="M 435.5,277.5 C 435.5,300.167 435.5,322.833 435.5,345.5C 423.625,344.835 411.791,345.169 400,346.5C 398.701,345.91 397.868,344.91 397.5,343.5C 398.122,340.626 399.122,337.96 400.5,335.5C 400.328,334.508 400.662,333.842 401.5,333.5C 403.624,332.969 405.124,331.635 406,329.5C 410.974,319.039 416.141,308.705 421.5,298.5C 421.997,296.182 422.33,293.848 422.5,291.5C 423.664,287.341 424.997,283.341 426.5,279.5C 429.248,277.956 432.248,277.29 435.5,277.5 Z"/></g>
<g><path style="opacity:1" fill="#dbaa64" d="M 236.5,283.5 C 229.113,287.623 222.28,292.623 216,298.5C 212.267,295.255 208.434,292.255 204.5,289.5C 208.056,290.601 211.723,291.601 215.5,292.5C 215.291,293.086 214.957,293.586 214.5,294C 216.821,295.713 217.821,294.88 217.5,291.5C 218.873,291.657 220.207,291.49 221.5,291C 221.167,290.667 220.833,290.333 220.5,290C 221.325,288.312 222.325,288.145 223.5,289.5C 226.935,285.617 231.268,283.617 236.5,283.5 Z"/></g>
<g><path style="opacity:1" fill="#30693f" d="M 302.5,291.5 C 303.451,292.919 303.784,294.585 303.5,296.5C 298.878,296.844 294.545,296.177 290.5,294.5C 294.5,294.833 298.5,295.167 302.5,295.5C 302.5,294.167 302.5,292.833 302.5,291.5 Z"/></g>
<g><path style="opacity:1" fill="#4f9366" d="M 131.5,283.5 C 132.695,283.866 133.361,284.699 133.5,286C 132.417,292.496 131.417,298.996 130.5,305.5C 129.839,303.866 129.506,302.033 129.5,300C 130.931,294.626 131.597,289.126 131.5,283.5 Z"/></g>
<g><path style="opacity:1" fill="#58a973" d="M 318.5,193.5 C 320.217,196.845 321.717,200.512 323,204.5C 323.667,213.833 323.667,223.167 323,232.5C 322,233.167 321,233.833 320,234.5C 319.783,239.553 319.283,244.553 318.5,249.5C 317.758,250.287 316.925,250.953 316,251.5C 313.866,257.102 311.199,262.435 308,267.5C 305.046,268.782 303.213,270.948 302.5,274C 304.635,275.993 305.635,278.493 305.5,281.5C 304.5,281.5 303.5,281.5 302.5,281.5C 304.291,287.037 304.791,292.704 304,298.5C 297.232,297.636 290.399,296.97 283.5,296.5C 283.649,297.552 283.483,298.552 283,299.5C 274.575,308.585 266.242,317.585 258,326.5C 257.458,332.239 255.791,337.572 253,342.5C 252.184,343.823 251.017,344.489 249.5,344.5C 249.415,341.351 250.415,338.684 252.5,336.5C 254.401,333.657 255.567,330.324 256,326.5C 259.112,323.899 261.612,320.899 263.5,317.5C 268.844,313.155 273.511,308.155 277.5,302.5C 280.154,300.54 281.821,297.873 282.5,294.5C 285.089,293.795 287.756,293.795 290.5,294.5C 294.545,296.177 298.878,296.844 303.5,296.5C 303.784,294.585 303.451,292.919 302.5,291.5C 301.866,286.167 300.533,281 298.5,276C 316.765,254.122 323.765,228.955 319.5,200.5C 319.552,198.097 319.219,195.764 318.5,193.5 Z"/></g>
<g><path style="opacity:1" fill="#55a16f" d="M 83.5,296.5 C 85.0931,297.348 86.2597,298.681 87,300.5C 88.668,306.815 91.0013,312.815 94,318.5C 97.1047,326.694 99.6047,335.027 101.5,343.5C 95.2703,328.02 89.2703,312.354 83.5,296.5 Z"/></g>
<g><path style="opacity:1" fill="#58a170" d="M 164.5,318.5 C 162.351,316.954 160.184,315.288 158,313.5C 157.788,311.22 156.955,309.22 155.5,307.5C 153.211,306.534 151.211,305.201 149.5,303.5C 144.002,303.668 138.502,304.668 133,306.5C 131.93,306.472 131.097,306.139 130.5,305.5C 136.06,304.369 141.393,302.536 146.5,300C 147.833,299.333 149.167,299.333 150.5,300C 156.944,304.928 161.611,311.095 164.5,318.5 Z"/></g>
<g><path style="opacity:1" fill="#dac2a6" d="M -0.5,-0.5 C 64.5,-0.5 129.5,-0.5 194.5,-0.5C 181.469,1.50326 168.469,4.3366 155.5,8C 81.4232,33.077 32.5898,82.9103 9,157.5C -10.5056,241.17 9.66108,313.504 69.5,374.5C 69.5,394.167 69.5,413.833 69.5,433.5C 46.1667,433.5 22.8333,433.5 -0.5,433.5C -0.5,288.833 -0.5,144.167 -0.5,-0.5 Z"/></g>
<g><path style="opacity:1" fill="#081508" d="M 393.5,233.5 C 393.328,234.492 393.662,235.158 394.5,235.5C 389.562,239.936 384.729,244.603 380,249.5C 356.057,277.553 338.224,309.053 326.5,344C 328.021,353.064 331.021,361.564 335.5,369.5C 334.833,370.833 334.167,372.167 333.5,373.5C 330.429,365.12 327.263,356.787 324,348.5C 320.703,356.695 317.87,365.028 315.5,373.5C 314.946,376.746 313.946,379.746 312.5,382.5C 312.672,381.508 312.338,380.842 311.5,380.5C 312.497,375.839 313.497,371.173 314.5,366.5C 318.288,355.137 322.288,343.804 326.5,332.5C 328.065,330.491 329.065,328.157 329.5,325.5C 335.147,314.205 340.814,302.872 346.5,291.5C 354.691,278.46 363.524,265.794 373,253.5C 379.013,245.987 385.846,239.321 393.5,233.5 Z"/></g>
<g><path style="opacity:1" fill="#59aa75" d="M 346.5,291.5 C 340.814,302.872 335.147,314.205 329.5,325.5C 333.275,313.992 338.275,302.992 344.5,292.5C 344.957,291.702 345.624,291.369 346.5,291.5 Z"/></g>
<g><path style="opacity:1" fill="#2f5b32" d="M 242.5,305.5 C 242.21,312.016 241.543,318.35 240.5,324.5C 240.156,317.918 240.823,311.584 242.5,305.5 Z"/></g>
<g><path style="opacity:1" fill="#5a966e" d="M 263.5,317.5 C 261.612,320.899 259.112,323.899 256,326.5C 255.567,330.324 254.401,333.657 252.5,336.5C 253.013,332.771 253.846,329.104 255,325.5C 257.703,322.629 260.536,319.962 263.5,317.5 Z"/></g>
<g><path style="opacity:1" fill="#4d704b" d="M 395.5,296.5 C 388.662,312.863 379.329,327.53 367.5,340.5C 367.5,339.167 367.5,337.833 367.5,336.5C 368.5,336.5 369.5,336.5 370.5,336.5C 370.491,334.692 370.991,333.025 372,331.5C 374.845,327.795 377.678,324.128 380.5,320.5C 381.298,318.922 381.798,317.256 382,315.5C 383.011,314.663 384.178,314.33 385.5,314.5C 384.154,310.964 383.154,307.298 382.5,303.5C 384.877,303.216 387.044,303.216 389,303.5C 390.829,301.844 392.163,299.844 393,297.5C 393.671,296.748 394.504,296.414 395.5,296.5 Z"/></g>
<g><path style="opacity:1" fill="#3d4a7d" d="M 422.5,291.5 C 422.33,293.848 421.997,296.182 421.5,298.5C 416.141,308.705 410.974,319.039 406,329.5C 405.124,331.635 403.624,332.969 401.5,333.5C 409.467,319.9 416.467,305.9 422.5,291.5 Z"/></g>
<g><path style="opacity:1" fill="#56a06f" d="M 326.5,332.5 C 322.288,343.804 318.288,355.137 314.5,366.5C 316.749,355.171 320.082,344.171 324.5,333.5C 324.957,332.702 325.624,332.369 326.5,332.5 Z"/></g>
<g><path style="opacity:1" fill="#d0c167" d="M 239.5,336.5 C 240.482,339.962 240.815,343.629 240.5,347.5C 235.685,344.454 235.352,340.787 239.5,336.5 Z"/></g>
<g><path style="opacity:1" fill="#473d0f" d="M 240.5,347.5 C 240.815,343.629 240.482,339.962 239.5,336.5C 239.369,335.624 239.702,334.957 240.5,334.5C 241.811,338.984 241.811,343.317 240.5,347.5 Z"/></g>
<g><path style="opacity:1" fill="#58a671" d="M 164.5,318.5 C 165.885,319.574 167.051,320.907 168,322.5C 180.941,346.51 184.107,371.843 177.5,398.5C 177.5,400.833 177.5,403.167 177.5,405.5C 167.313,404.434 157.647,401.767 148.5,397.5C 157.561,399.262 166.561,401.262 175.5,403.5C 175.93,394.397 176.93,385.397 178.5,376.5C 178.047,369.163 177.547,361.83 177,354.5C 174.959,344.91 171.959,335.577 168,326.5C 165.391,324.519 164.224,321.852 164.5,318.5 Z"/></g>
<g><path style="opacity:1" fill="#4f5c8f" d="M 400.5,335.5 C 399.122,337.96 398.122,340.626 397.5,343.5C 397.868,344.91 398.701,345.91 400,346.5C 411.791,345.169 423.625,344.835 435.5,345.5C 435.5,347.167 435.5,348.833 435.5,350.5C 421.496,350.667 407.496,350.5 393.5,350C 392.663,348.989 392.33,347.822 392.5,346.5C 394.435,342.293 397.102,338.627 400.5,335.5 Z"/></g>
<g><path style="opacity:1" fill="#548a5b" d="M 235.5,339.5 C 234.489,341.402 234.322,343.402 235,345.5C 237.372,348.53 239.705,351.53 242,354.5C 242.376,361.518 242.876,368.518 243.5,375.5C 241.269,368.136 239.936,360.47 239.5,352.5C 237.833,351.167 236.167,349.833 234.5,348.5C 231.509,344.874 231.843,341.874 235.5,339.5 Z"/></g>
<g><path style="opacity:1" fill="#5a627a" d="M 392.5,346.5 C 392.33,347.822 392.663,348.989 393.5,350C 407.496,350.5 421.496,350.667 435.5,350.5C 435.5,351.5 435.5,352.5 435.5,353.5C 420.149,353.308 404.816,353.641 389.5,354.5C 389.5,353.167 389.5,351.833 389.5,350.5C 389.738,348.596 390.738,347.262 392.5,346.5 Z"/></g>
<g><path style="opacity:1" fill="#041204" d="M 107.5,352.5 C 121.1,363.1 131.767,376.1 139.5,391.5C 137.931,391.815 136.265,391.815 134.5,391.5C 135.573,390.749 135.74,389.749 135,388.5C 126.802,375.799 117.302,364.132 106.5,353.5C 107.167,353.5 107.5,353.167 107.5,352.5 Z"/></g>
<g><path style="opacity:1" fill="#91caa6" d="M 89.5,323.5 C 90.1174,323.611 90.6174,323.944 91,324.5C 93.6676,334.461 96.8342,344.128 100.5,353.5C 102.478,359.823 104.478,366.156 106.5,372.5C 106.167,373.167 105.833,373.833 105.5,374.5C 90.5191,363.852 77.5191,351.186 66.5,336.5C 70.3256,337.81 73.4923,340.143 76,343.5C 75.816,346.784 77.316,348.784 80.5,349.5C 82.3465,353.105 85.3465,355.272 89.5,356C 90.8333,356.667 90.8333,357.333 89.5,358C 90.8333,358.333 92.1667,358.667 93.5,359C 96.5507,361.295 99.2174,364.129 101.5,367.5C 101.833,367.167 102.167,366.833 102.5,366.5C 100.929,364.118 100.096,361.451 100,358.5C 98.4126,354.268 96.4126,350.268 94,346.5C 93.6596,342.442 92.9929,338.442 92,334.5C 89.5719,331.023 88.7386,327.356 89.5,323.5 Z"/></g>
<g><path style="opacity:1" fill="#626767" d="M 389.5,350.5 C 389.5,351.833 389.5,353.167 389.5,354.5C 404.816,353.641 420.149,353.308 435.5,353.5C 435.5,363.167 435.5,372.833 435.5,382.5C 419.601,383.741 403.767,384.407 388,384.5C 384.63,384.667 381.463,384.001 378.5,382.5C 377.833,382.833 377.167,383.167 376.5,383.5C 375.481,382.313 374.314,381.313 373,380.5C 369.134,384.024 365.301,386.358 361.5,387.5C 360,387.547 359,386.881 358.5,385.5C 360.734,383.619 362.067,381.285 362.5,378.5C 372.228,369.774 381.228,360.441 389.5,350.5 Z"/></g>
<g><path style="opacity:1" fill="#91d5a8" d="M 323.5,379.5 C 320.115,381.947 316.615,384.28 313,386.5C 312.51,385.207 312.343,383.873 312.5,382.5C 313.946,379.746 314.946,376.746 315.5,373.5C 316.708,372.766 318.041,372.433 319.5,372.5C 319.765,368.147 320.265,363.813 321,359.5C 321.333,362.167 321.667,364.833 322,367.5C 323.153,364.289 323.82,360.956 324,357.5C 326.057,360.028 327.057,363.028 327,366.5C 330.324,367.033 331.824,369.366 331.5,373.5C 326.89,373.12 324.224,375.12 323.5,379.5 Z"/></g>
<g><path style="opacity:1" fill="#8ec6a3" d="M 333.5,373.5 C 330.167,375.5 326.833,377.5 323.5,379.5C 324.224,375.12 326.89,373.12 331.5,373.5C 331.824,369.366 330.324,367.033 327,366.5C 327.057,363.028 326.057,360.028 324,357.5C 323.82,360.956 323.153,364.289 322,367.5C 321.667,364.833 321.333,362.167 321,359.5C 320.265,363.813 319.765,368.147 319.5,372.5C 318.041,372.433 316.708,372.766 315.5,373.5C 317.87,365.028 320.703,356.695 324,348.5C 327.263,356.787 330.429,365.12 333.5,373.5 Z"/></g>
<g><path style="opacity:1" fill="#43714a" d="M 190.5,340.5 C 190.342,350.191 190.675,359.857 191.5,369.5C 193.167,369.5 194.833,369.5 196.5,369.5C 194.735,370.461 192.735,370.795 190.5,370.5C 189.917,364.165 189.25,357.832 188.5,351.5C 188.647,347.604 189.314,343.938 190.5,340.5 Z"/></g>
<g><path style="opacity:1" fill="#ededec" d="M 196.5,402.5 C 191.816,399.656 186.816,397.656 181.5,396.5C 180.903,396.265 180.57,395.765 180.5,395C 183.15,385.251 185.484,375.417 187.5,365.5C 188.474,367.743 188.808,370.076 188.5,372.5C 195.178,372.119 201.844,371.952 208.5,372C 203,376.833 197.5,381.667 192,386.5C 193.088,391.528 194.922,396.362 197.5,401C 197.43,401.765 197.097,402.265 196.5,402.5 Z"/></g>
<g><path style="opacity:1" fill="#4d7449" d="M 106.5,353.5 C 117.302,364.132 126.802,375.799 135,388.5C 135.74,389.749 135.573,390.749 134.5,391.5C 125.509,387.918 117.342,382.918 110,376.5C 109.18,369.063 107.346,361.896 104.5,355C 104.836,353.97 105.503,353.47 106.5,353.5 Z"/></g>
<g><path style="opacity:1" fill="#b7aaab" d="M 69.5,374.5 C 70.8333,375.5 72.1667,376.5 73.5,377.5C 74.4421,395.844 74.7755,414.511 74.5,433.5C 72.8333,433.5 71.1667,433.5 69.5,433.5C 69.5,413.833 69.5,394.167 69.5,374.5 Z"/></g>
<g><path style="opacity:1" fill="#515e5f" d="M 362.5,378.5 C 362.067,381.285 360.734,383.619 358.5,385.5C 359,386.881 360,387.547 361.5,387.5C 365.301,386.358 369.134,384.024 373,380.5C 374.314,381.313 375.481,382.313 376.5,383.5C 377.167,383.167 377.833,382.833 378.5,382.5C 381.463,384.001 384.63,384.667 388,384.5C 403.767,384.407 419.601,383.741 435.5,382.5C 435.5,399.5 435.5,416.5 435.5,433.5C 366.5,433.5 297.5,433.5 228.5,433.5C 279.38,430.282 324.047,411.948 362.5,378.5 Z"/></g>
<g><path style="opacity:1" fill="#7077a7" d="M 77.5,381.5 C 82.1909,385.197 86.8576,388.864 91.5,392.5C 87.9829,390.576 84.3163,388.909 80.5,387.5C 80.5,402.833 80.5,418.167 80.5,433.5C 79.1667,433.5 77.8333,433.5 76.5,433.5C 76.1943,416.12 76.5276,398.786 77.5,381.5 Z"/></g>
<g><path style="opacity:1" fill="#495aa5" d="M 91.5,392.5 C 106.294,402.228 121.628,410.894 137.5,418.5C 132.255,416.713 126.922,415.213 121.5,414C 115.819,410.827 110.486,407.161 105.5,403C 101.372,400.937 97.0383,399.437 92.5,398.5C 92.4032,410 92.4032,421.666 92.5,433.5C 88.5,433.5 84.5,433.5 80.5,433.5C 80.5,418.167 80.5,402.833 80.5,387.5C 84.3163,388.909 87.9829,390.576 91.5,392.5 Z"/></g>
<g><path style="opacity:1" fill="#5c9562" d="M 243.5,379.5 C 246.334,388.683 249.001,398.017 251.5,407.5C 250.167,407.5 248.833,407.5 247.5,407.5C 248.472,406.601 249.138,405.434 249.5,404C 248.427,400.122 246.593,396.622 244,393.5C 243.501,388.845 243.334,384.179 243.5,379.5 Z"/></g>
<g><path style="opacity:1" fill="#4458a9" d="M 137.5,418.5 C 138.167,418.5 138.833,418.5 139.5,418.5C 139.47,419.497 139.97,420.164 141,420.5C 145.871,422.068 150.704,423.735 155.5,425.5C 156.48,428.086 156.813,430.753 156.5,433.5C 135.167,433.5 113.833,433.5 92.5,433.5C 92.4032,421.666 92.4032,410 92.5,398.5C 97.0383,399.437 101.372,400.937 105.5,403C 110.486,407.161 115.819,410.827 121.5,414C 126.922,415.213 132.255,416.713 137.5,418.5 Z"/></g>
<g><path style="opacity:1" fill="#9392ab" d="M 73.5,377.5 C 75.1667,378.5 76.5,379.833 77.5,381.5C 76.5276,398.786 76.1943,416.12 76.5,433.5C 75.8333,433.5 75.1667,433.5 74.5,433.5C 74.7755,414.511 74.4421,395.844 73.5,377.5 Z"/></g>
<g><path style="opacity:1" fill="#0d2713" d="M 280.5,400.5 C 276.622,403.013 272.289,404.346 267.5,404.5C 271.617,402.796 275.951,401.463 280.5,400.5 Z"/></g>
<g><path style="opacity:1" fill="#609e69" d="M 211.5,368.5 C 212.725,369.152 213.392,370.319 213.5,372C 213.167,373.167 212.833,374.333 212.5,375.5C 208.288,380.179 203.788,384.512 199,388.5C 199.339,393.041 200.172,397.541 201.5,402C 201.42,403.894 201.087,405.727 200.5,407.5C 216.162,408.521 231.829,408.521 247.5,407.5C 247.5,407.833 247.5,408.167 247.5,408.5C 246.833,408.5 246.167,408.5 245.5,408.5C 239.979,408.782 234.646,409.449 229.5,410.5C 212.717,411.122 196.051,410.122 179.5,407.5C 178.686,403.491 180.186,400.824 184,399.5C 187.309,401.571 190.809,403.238 194.5,404.5C 195.946,405.613 197.613,405.78 199.5,405C 200.097,403.938 200.43,402.772 200.5,401.5C 198.608,397.349 196.608,393.182 194.5,389C 199.611,383.941 204.944,379.107 210.5,374.5C 212.546,372.719 212.88,370.719 211.5,368.5 Z"/></g>
<g><path style="opacity:1" fill="#133c1b" d="M 245.5,408.5 C 240.432,410.178 235.098,410.844 229.5,410.5C 234.646,409.449 239.979,408.782 245.5,408.5 Z"/></g>
<g><path style="opacity:1" fill="#435485" d="M 139.5,418.5 C 146.355,420.539 153.022,422.873 159.5,425.5C 160.63,428.137 160.63,430.803 159.5,433.5C 158.5,433.5 157.5,433.5 156.5,433.5C 156.813,430.753 156.48,428.086 155.5,425.5C 150.704,423.735 145.871,422.068 141,420.5C 139.97,420.164 139.47,419.497 139.5,418.5 Z"/></g>
<g><path style="opacity:1" fill="#4c596f" d="M 159.5,425.5 C 163.468,426.394 167.468,427.227 171.5,428C 168.593,429.609 165.927,431.442 163.5,433.5C 162.167,433.5 160.833,433.5 159.5,433.5C 160.63,430.803 160.63,428.137 159.5,425.5 Z"/></g>
<g><path style="opacity:1" fill="#e7edf0" d="M 207.5,433.5 C 194.167,433.5 180.833,433.5 167.5,433.5C 170.152,431.031 173.319,429.697 177,429.5C 187.231,431.463 197.398,432.797 207.5,433.5 Z"/></g>
</svg>
